<svg
        xmlns="http://www.w3.org/2000/svg" width="16" height="16" viewBox="0 0 16 16" fill="none"
        version="1.0"
>
    <g
            transform="translate(0.000000,32.000000) scale(0.100000,-0.100000)"
            fill="currentColor"
            stroke="none"
    >
        <path d="M2470 4420 c-41 -5 -112 -21 -158 -36 -189 -61 -319 -197 -330 -346 -4 -55 -6 -57 -36 -64 -49 -10 -124 -54 -161 -96 -80 -87 -120 -234 -80 -294 13 -20 17 -50 19 -118 1 -87 4 -97 63 -236 34 -80 60 -146 58 -148 -2 -2 -12 1 -23 7 -25 13 -67 0 -80 -26 -29 -56 -22 -119 29 -283 26 -85 34 -100 52 -100 19 0 19 1 5 13 -24 17 -68 178 -75 268 -5 68 -3 79 14 96 25 25 63 20 92 -11 24 -26 41 -120 41 -233 0 -76 -2 -83 -19 -83 -21 0 -51 35 -51 58 0 9 7 11 20 7 24 -8 26 11 5 39 -8 11 -15 41 -15 66 0 55 -28 92 -49 66 -7 -8 -8 -17 -3 -20 5 -3 12 -40 15 -83 3 -43 11 -91 18 -108 7 -16 13 -34 13 -40 1 -5 15 -11 31 -13 l31 -3 -4 -72 c-4 -60 -10 -81 -38 -127 -41 -68 -70 -156 -79 -235 -9 -81 11 -218 42 -288 14 -31 24 -59 22 -61 -2 -2 -57 -32 -121 -66 l-117 -61 -7 28 c-12 52 -34 83 -77 110 -23 15 -48 34 -54 42 -20 24 -15 96 12 177 21 64 24 81 15 120 -6 25 -33 172 -61 327 -59 334 -145 726 -165 758 -18 29 -24 -30 -22 -196 1 -99 -2 -187 -7 -194 -5 -10 -4 -12 3 -7 7 4 12 2 12 -3 0 -6 -5 -11 -11 -11 -6 0 -3 -8 7 -17 16 -17 16 -18 -7 -23 l-24 -6 25 -7 c22 -7 23 -8 8 -18 -25 -14 -22 -28 5 -22 22 4 22 4 -3 -18 l-25 -22 32 5 c18 2 30 1 27 -4 -3 -4 -14 -8 -24 -8 -10 0 -22 -5 -26 -12 -5 -8 -2 -9 11 -4 18 7 18 6 0 -14 -21 -23 -18 -24 22 -10 26 9 26 9 9 -5 -10 -8 -24 -16 -30 -18 -6 -2 -8 -8 -4 -12 4 -4 21 -3 37 3 41 14 39 9 -4 -17 -47 -27 -46 -46 2 -26 50 21 54 11 4 -15 -23 -11 -41 -25 -41 -30 0 -13 4 -13 47 5 42 18 46 18 37 4 -3 -6 -22 -17 -40 -25 -35 -15 -46 -34 -19 -34 9 0 29 7 45 15 17 9 30 11 30 6 0 -13 -58 -44 -68 -37 -4 2 -9 -4 -9 -15 -2 -23 7 -24 52 -5 51 22 43 -1 -10 -26 -25 -12 -45 -28 -45 -35 0 -16 0 -16 43 2 74 31 74 8 1 -27 -59 -27 -45 -48 16 -24 46 18 50 19 50 8 0 -5 -20 -19 -45 -31 -25 -12 -45 -29 -45 -37 0 -18 3 -18 50 6 46 23 51 24 45 7 -3 -7 -25 -22 -48 -35 l-43 -23 8 -77 c4 -42 15 -113 24 -157 17 -82 15 -157 -6 -209 -10 -28 -11 -28 -24 -10 -38 56 -66 251 -66 461 l0 132 -35 -21 c-52 -30 -55 -14 -3 18 42 27 40 47 -2 24 -12 -6 -24 -9 -28 -6 -3 4 9 12 26 18 18 7 32 16 32 20 0 11 -18 10 -41 -2 -10 -6 -19 -7 -19 -2 0 5 14 15 30 22 16 7 30 19 30 26 0 18 -4 17 -40 -1 -17 -9 -30 -11 -30 -5 0 5 16 16 36 25 19 8 33 19 29 24 -6 11 -31 5 -52 -12 -9 -6 -13 -6 -13 2 0 7 13 20 30 29 41 23 41 48 0 27 -33 -17 -40 -18 -40 -7 0 4 14 15 30 24 17 9 30 24 30 34 0 14 -4 13 -35 -5 -26 -15 -35 -17 -35 -7 0 8 14 19 30 26 17 7 30 19 30 26 0 8 -3 13 -7 13 -20 -3 -24 2 -13 16 19 23 5 28 -29 10 -17 -8 -31 -11 -31 -6 0 6 14 17 30 26 17 9 30 20 30 26 0 9 -16 7 -57 -8 -7 -3 -13 -1 -13 4 0 5 14 14 30 20 17 6 30 19 30 28 0 13 -4 15 -12 8 -21 -16 -48 -23 -48 -12 0 5 11 15 25 21 25 11 37 45 13 35 -7 -3 -21 -8 -30 -12 -11 -4 -18 -3 -18 4 0 6 3 11 8 11 4 0 15 7 26 15 24 19 12 39 -15 24 -29 -15 -37 -2 -11 17 31 22 28 42 -6 37 l-27 -4 22 17 c30 22 29 34 -2 34 -14 0 -25 5 -25 10 0 6 7 10 15 10 8 0 15 7 15 15 0 8 -7 15 -15 15 -8 0 -15 5 -15 10 0 6 5 10 10 10 20 0 10 28 -13 35 -19 6 -19 8 -5 12 25 6 22 19 -5 28 -19 6 -19 8 -5 12 25 6 22 20 -9 50 -18 17 -22 24 -11 20 25 -9 22 11 -4 34 -13 10 -17 18 -10 19 6 0 12 -5 12 -12 0 -6 3 -8 7 -5 10 11 -48 67 -85 82 -50 22 -62 11 -62 -51 0 -91 93 -723 110 -753 6 -11 8 1 5 34 -4 36 -3 44 4 30 16 -33 12 -73 -7 -87 -18 -13 -18 -17 5 -138 38 -202 94 -461 104 -484 5 -11 14 -29 21 -38 10 -14 8 -21 -15 -42 -51 -47 -60 -111 -27 -184 19 -42 19 -43 0 -75 -40 -65 -13 -183 52 -230 33 -24 96 -26 130 -3 32 21 58 73 58 116 l0 31 26 -20 c48 -38 59 -5 20 62 -32 55 -49 169 -35 222 10 37 68 105 89 105 5 0 -9 -17 -31 -38 -69 -64 -70 -153 -4 -219 26 -26 41 -33 73 -33 52 0 102 34 127 87 18 38 29 46 124 90 57 26 108 50 113 51 4 2 8 -8 8 -22 0 -77 142 -425 303 -738 55 -109 102 -196 104 -194 2 2 -24 84 -57 182 -228 662 -258 770 -239 883 17 106 19 108 61 58 22 -27 38 -59 43 -86 5 -29 19 -57 42 -82 43 -48 162 -123 229 -146 62 -20 62 -20 36 -39 -25 -17 -46 -86 -38 -120 4 -13 3 -24 -1 -24 -15 0 -165 171 -200 228 -19 31 -32 46 -28 32 16 -54 71 -144 135 -218 37 -43 74 -91 82 -107 27 -53 50 -147 72 -295 l22 -145 0 188 c-1 177 0 189 19 203 11 8 36 14 55 12 l35 -3 6 -130 c9 -180 12 -182 19 -15 l5 145 19 -35 c30 -55 17 -192 -33 -355 -23 -71 -41 -134 -41 -140 0 -5 43 76 94 180 113 227 174 322 258 400 62 58 208 159 216 150 12 -12 -42 -117 -147 -285 -177 -285 -292 -484 -263 -455 5 6 89 128 186 272 97 144 176 261 176 259 0 -2 -23 -66 -51 -142 -27 -77 -65 -182 -84 -234 -18 -52 -40 -115 -49 -139 -9 -24 -15 -45 -13 -47 1 -1 38 72 81 164 73 155 135 304 266 642 29 74 59 148 67 163 l14 28 52 -31 c29 -17 84 -47 123 -67 l71 -36 -45 -151 c-49 -165 -67 -208 -112 -260 -41 -46 -77 -130 -84 -196 -8 -70 14 -192 47 -257 25 -48 96 -126 84 -90 -48 132 -48 253 -3 353 52 113 97 150 163 132 51 -13 77 -60 81 -144 4 -66 1 -79 -33 -155 -46 -101 -54 -153 -30 -203 22 -45 35 -46 35 -3 0 53 24 119 65 183 63 97 60 95 107 78 181 -64 296 246 151 407 -24 27 -52 44 -90 56 -30 10 -57 22 -59 28 -10 24 69 467 115 657 28 112 68 282 90 378 71 317 115 386 198 316 47 -39 77 -42 108 -12 18 18 24 32 20 46 -4 12 1 31 14 49 44 61 47 165 7 226 -21 31 -86 65 -126 65 -39 0 -86 -24 -101 -51 -6 -12 -15 -63 -19 -113 -5 -59 -20 -132 -43 -202 -19 -60 -43 -141 -53 -180 -17 -70 -18 -71 -34 -50 -44 56 -44 63 -1 134 60 100 90 171 97 233 9 78 -7 120 -66 169 -43 36 -49 46 -55 93 -3 28 -20 81 -37 115 -40 84 -95 122 -176 122 -126 0 -200 -110 -190 -283 5 -88 26 -144 91 -241 28 -43 32 -58 32 -113 0 -54 -3 -66 -20 -75 -43 -25 -65 -57 -65 -95 0 -33 61 -227 75 -242 3 -3 19 0 35 6 17 6 30 8 30 5 0 -18 -105 -404 -147 -539 l-46 -153 -134 70 c-74 39 -138 68 -142 65 -5 -2 -28 -52 -51 -110 -24 -58 -45 -103 -47 -101 -3 2 17 57 43 123 26 65 78 208 115 318 37 110 68 197 68 192 1 -4 -10 -60 -24 -124 -27 -124 -27 -164 0 -67 9 33 31 111 50 174 18 63 45 160 60 215 14 55 40 141 56 192 33 102 30 133 -16 133 -19 0 -27 -9 -43 -52 -37 -100 -261 -803 -287 -903 -58 -221 -62 -230 -90 -231 -76 -5 -259 -157 -344 -286 -25 -38 -48 -68 -53 -68 -4 0 -8 14 -8 30 0 35 34 107 124 258 35 59 79 139 98 177 36 72 88 212 88 237 0 8 11 25 25 38 l24 23 12 -29 c20 -50 22 -173 5 -248 -9 -38 -15 -71 -12 -73 2 -2 12 29 21 69 21 85 23 192 6 266 -12 48 -11 57 9 104 31 71 36 170 16 323 -9 72 -19 149 -22 171 -5 41 -4 42 31 48 42 8 64 39 97 136 26 79 28 168 4 204 -20 32 -65 35 -91 6 -10 -11 -20 -18 -23 -16 -2 3 34 83 82 178 50 101 90 197 97 230 15 76 4 156 -32 224 -16 31 -29 62 -29 70 0 25 32 94 44 94 6 0 38 -21 70 -46 l59 -47 -6 89 c-11 159 -74 298 -184 407 -136 134 -274 190 -498 201 -55 2 -134 1 -175 -4z m216 -50 c-54 -17 -156 -77 -156 -91 0 -3 24 1 53 9 31 8 95 14 157 14 120 0 199 -20 280 -72 49 -31 165 -148 156 -157 -2 -2 -23 9 -47 27 -56 40 -132 61 -221 61 -123 0 -217 -40 -300 -129 -71 -76 -99 -142 -118 -276 -8 -53 -8 -47 -6 49 2 98 5 116 30 165 80 155 178 215 376 229 l105 7 -60 13 c-142 32 -316 -38 -405 -161 -41 -57 -36 -35 8 37 46 74 115 127 201 153 77 24 62 29 -23 7 -206 -54 -322 -269 -272 -504 9 -41 14 -76 12 -78 -2 -2 -14 20 -26 49 -18 41 -24 79 -29 163 l-5 110 -12 -50 c-7 -27 -13 -86 -13 -130 -2 -94 -15 -85 -30 21 -31 219 100 469 280 534 30 10 70 19 89 19 32 0 30 -2 -24 -19z m-344 -43 c-57 -61 -113 -165 -132 -247 -16 -66 -17 -190 -2 -244 16 -55 6 -58 -17 -5 -66 148 -8 377 125 498 73 67 91 65 26 -2z m64 -69 c-90 -143 -125 -330 -90 -488 6 -25 6 -25 -20 5 -102 118 -52 405 87 506 22 16 44 29 48 29 5 0 -6 -24 -25 -52z m-251 -68 c-45 -88 -56 -261 -21 -345 8 -19 12 -35 9 -35 -3 0 2 -10 13 -21 19 -22 19 -22 -3 -11 -12 7 -44 17 -71 23 -71 15 -121 -1 -186 -60 -29 -26 -65 -51 -80 -55 -30 -7 -77 11 -84 32 -3 11 0 12 16 3 44 -24 71 -13 131 49 38 39 69 62 89 66 42 9 42 28 0 21 -18 -3 -42 -9 -52 -13 -13 -5 -17 -4 -12 4 4 6 24 17 46 23 35 11 44 9 107 -22 37 -18 72 -35 77 -37 5 -3 0 8 -11 24 -30 42 -46 110 -38 163 9 69 34 152 57 189 25 40 34 42 13 2z m911 -124 c60 -28 127 -92 163 -157 l25 -44 -39 34 c-129 112 -338 121 -493 21 -32 -20 -69 -50 -81 -66 l-23 -29 17 30 c55 95 195 175 305 175 25 0 39 4 35 10 -10 16 -139 12 -192 -6 -105 -36 -176 -115 -219 -245 l-24 -74 5 63 c6 82 32 139 90 201 105 113 292 150 431 87z m8 -167 c30 -11 65 -28 77 -38 l22 -18 -19 -49 -18 -48 -10 32 c-31 109 -207 145 -363 73 -50 -23 -61 -26 -43 -11 30 25 95 60 130 71 52 15 168 10 224 -12z m-51 -209 c56 -21 109 -68 125 -111 l10 -25 -45 22 c-24 13 -65 26 -91 31 l-47 7 35 6 35 6 -60 23 c-33 13 -88 26 -122 28 -35 3 -63 9 -63 14 0 25 154 25 223 -1z m-1080 -12 c20 -10 16 -13 -38 -24 -80 -17 -127 -17 -150 0 -18 13 -15 14 33 14 28 1 60 5 69 11 24 14 60 14 86 -1z m307 -48 c155 -33 249 -36 365 -10 127 29 222 35 255 18 13 -7 35 -29 48 -48 25 -37 26 -47 6 -225 -6 -56 -4 -64 26 -113 29 -46 34 -66 44 -160 5 -59 10 -135 9 -168 -1 -105 -61 -271 -117 -323 -16 -15 -24 -31 -21 -42 6 -16 -18 -49 -35 -49 -5 0 -33 25 -63 55 -43 43 -64 56 -97 61 -35 6 -41 10 -36 27 8 33 -5 75 -32 102 -32 32 -41 25 -13 -11 28 -35 29 -84 1 -84 -11 0 -37 -9 -57 -20 -48 -26 -77 -25 -120 1 -18 12 -43 19 -53 16 -16 -4 -20 0 -20 22 0 33 16 51 46 51 21 0 23 6 29 85 8 97 3 191 -12 206 -6 6 -8 -11 -5 -48 2 -33 -3 -88 -12 -126 -13 -55 -23 -75 -52 -103 -33 -30 -36 -38 -32 -72 6 -38 5 -39 -39 -50 -32 -9 -58 -27 -92 -62 -26 -28 -53 -50 -59 -50 -14 0 -31 31 -25 46 2 6 -11 23 -30 37 -42 32 -89 120 -117 217 -19 68 -20 91 -14 250 6 158 8 179 30 216 12 22 30 47 39 54 13 11 15 26 9 89 -10 124 23 198 100 220 43 13 41 13 146 -9z m-351 -58 c-24 -16 -57 -43 -72 -61 -32 -38 -36 -23 -6 25 23 38 62 63 98 64 21 0 19 -4 -20 -28z m1160 2 c65 -19 101 -52 101 -93 l0 -30 -44 44 c-24 24 -66 55 -93 69 -55 29 -40 33 36 10z m-1109 -33 c0 -10 -122 -102 -128 -96 -9 8 36 67 64 86 30 20 64 25 64 10z m1112 -39 c44 -29 70 -65 62 -87 -6 -14 -8 -13 -21 4 -7 11 -41 41 -73 66 -33 26 -60 50 -60 55 0 12 42 -6 92 -38z m-1115 -38 c2 -5 -9 -17 -24 -26 -16 -9 -38 -26 -50 -38 l-23 -21 0 25 c0 18 11 33 37 51 38 25 54 28 60 9z m1119 -49 c18 -18 34 -41 34 -51 0 -15 -6 -13 -32 13 -18 17 -48 38 -65 47 -18 9 -33 23 -33 31 0 22 54 -1 96 -40z m674 6 c132 -97 129 -336 -7 -491 -55 -62 -63 -81 -63 -142 l0 -53 -15 29 c-29 55 -14 104 49 165 42 40 50 78 14 66 -63 -20 -84 -17 -115 14 -60 60 -88 204 -59 303 17 60 55 114 90 129 28 11 75 3 106 -20z m-740 -26 c33 -19 21 -19 -21 0 -19 8 -27 14 -19 14 8 0 26 -6 40 -14z m-2019 -12 c13 -16 12 -17 -3 -4 -10 7 -18 15 -18 17 0 8 8 3 21 -13z m978 10 c-1 -12 -89 -74 -89 -64 0 19 52 71 71 71 10 0 19 -3 18 -7z m-1062 -45 c-3 -7 -5 -2 -5 12 0 14 2 19 5 13 2 -7 2 -19 0 -25z m2173 6 c0 -2 -9 0 -20 6 -11 6 -20 13 -20 16 0 2 9 0 20 -6 11 -6 20 -13 20 -16z m-2090 -140 c34 -140 95 -527 86 -549 -10 -27 -26 -16 -26 18 0 76 -66 479 -105 642 -6 23 -5 27 4 19 7 -6 25 -64 41 -130z m1 -297 c30 -178 35 -251 12 -197 -12 28 -94 546 -92 582 1 31 43 -169 80 -385z m49 343 c0 -5 -2 -10 -4 -10 -3 0 -8 5 -11 10 -3 6 -1 10 4 10 6 0 11 -4 11 -10z m3211 -86 c79 -41 78 -198 -2 -257 -15 -11 -33 -17 -40 -14 -10 3 -8 7 6 12 58 22 92 93 80 166 -15 89 -107 121 -166 58 -15 -17 -31 -47 -35 -67 -9 -58 -15 -62 -9 -7 10 101 86 151 166 109z m-2925 -214 c48 -212 134 -649 134 -680 0 -14 -9 -48 -20 -77 -10 -28 -23 -92 -28 -142 -6 -55 -16 -101 -27 -117 -23 -35 -29 -25 -9 15 9 18 19 71 23 119 5 54 16 106 29 136 12 27 22 57 22 68 0 19 -92 475 -145 721 -14 64 -24 125 -24 135 1 13 2 13 6 -3 2 -11 20 -90 39 -175z m2634 163 c22 -20 32 -39 35 -68 2 -22 2 -31 -1 -20 -20 78 -56 113 -81 79 -13 -18 -18 -7 -7 20 9 22 19 20 54 -11z m236 -1 c40 -26 46 -117 11 -158 -30 -34 -52 -27 -72 21 -19 43 -19 67 -1 110 15 34 37 44 62 27z m-261 -98 c14 -20 20 -44 19 -84 0 -67 -26 -120 -83 -173 -24 -22 -39 -43 -35 -50 4 -7 15 -24 25 -38 18 -26 18 -27 -7 -50 -62 -57 -102 -145 -129 -281 -4 -22 -11 -28 -30 -28 -14 0 -25 5 -25 11 0 27 43 176 62 213 17 34 19 49 12 100 -4 34 -8 89 -9 124 l0 63 57 52 c52 47 59 59 79 130 19 65 24 74 33 58 6 -10 20 -31 31 -47z m-787 -15 c18 -33 9 -97 -25 -188 -29 -77 -48 -99 -78 -88 -15 6 -16 19 -12 115 5 116 12 139 54 171 31 25 43 23 61 -10z m966 -44 l17 -30 -20 24 c-12 13 -21 28 -21 34 0 12 0 11 24 -28z m-2958 -207 c4 -7 4 -10 -1 -6 -4 4 -14 0 -21 -10 -12 -16 -13 -16 -14 0 0 9 6 19 13 21 6 3 13 6 14 6 1 1 5 -5 9 -11z m2499 -40 c23 -56 45 -180 35 -198 -5 -10 -20 -25 -34 -34 -24 -15 -26 -15 -37 5 -22 42 -59 163 -59 195 0 21 7 37 23 47 35 25 57 21 72 -15z m285 -158 c0 -25 -111 -360 -120 -360 -4 0 -11 7 -14 16 -14 37 -3 98 44 247 28 87 50 162 50 165 0 14 40 -54 40 -68z m-2874 29 l-48 -30 6 -50 c4 -27 10 -57 13 -67 3 -9 3 -14 -2 -10 -12 11 -33 115 -26 127 11 18 74 60 90 61 8 0 -7 -14 -33 -31z m1597 0 c25 -7 60 -32 102 -73 65 -65 105 -83 148 -67 13 5 29 16 36 25 7 9 17 13 22 11 7 -5 11 7 22 85 3 18 5 15 6 -10 4 -114 -75 -196 -169 -175 -20 4 -60 37 -118 96 -63 64 -97 90 -121 95 -23 5 -29 9 -19 15 18 12 45 11 91 -2z m-683 -32 c0 -5 -4 -5 -10 -2 -5 3 -10 14 -10 23 0 15 2 15 10 2 5 -8 10 -19 10 -23z m420 23 c0 -5 -10 -10 -23 -10 -30 0 -58 -20 -143 -101 -76 -72 -105 -89 -158 -89 -50 0 -116 64 -116 112 0 7 10 -7 21 -30 29 -58 70 -78 125 -63 45 13 73 36 128 106 34 43 30 40 -26 -17 -42 -44 -74 -68 -89 -69 -73 -4 -102 12 -125 68 -21 49 -16 63 6 19 24 -48 35 -56 78 -56 43 0 78 19 127 70 22 23 54 48 70 56 35 16 125 19 125 4z m-1292 -32 c26 -26 2 -75 -31 -62 -26 10 -32 45 -11 61 22 16 27 16 42 1z m1272 -11 c0 -2 -12 -14 -27 -28 l-28 -24 24 28 c23 25 31 32 31 24z m251 -34 c10 -12 5 -11 -18 6 -18 12 -33 24 -33 27 0 9 37 -15 51 -33z m-131 12 c11 -13 8 -15 -15 -15 -23 0 -26 2 -15 15 7 8 14 15 15 15 1 0 8 -7 15 -15z m-2 -39 c24 9 38 8 80 -10 28 -12 54 -24 57 -27 10 -11 -165 -20 -237 -13 l-70 7 58 31 c52 27 60 30 71 16 9 -12 17 -13 41 -4z m-602 -144 c0 -91 4 -116 27 -170 24 -61 25 -66 11 -105 -39 -109 -30 -195 48 -471 21 -76 37 -140 35 -143 -6 -6 -77 184 -99 267 -13 49 -21 110 -22 175 -1 76 -7 118 -26 175 -34 103 -35 262 -3 333 12 26 23 47 25 47 2 0 3 -48 4 -108z m-777 85 c-26 -21 -79 -46 -79 -38 0 12 48 40 69 41 8 0 12 -1 10 -3z m1249 -17 c82 -26 146 -25 227 2 l66 21 49 -23 c28 -13 50 -25 50 -28 0 -3 -9 -20 -21 -39 -24 -38 -65 -63 -105 -63 -21 0 -25 3 -19 18 18 44 17 49 -15 56 -50 10 -174 7 -230 -5 -50 -11 -51 -12 -45 -40 8 -33 -2 -36 -45 -14 -29 15 -70 64 -70 85 0 9 73 49 90 50 3 0 34 -9 68 -20z m670 -110 c0 -25 -3 -55 -6 -68 -4 -13 -7 26 -7 85 -1 74 1 96 7 68 4 -22 7 -60 6 -85z m-1918 72 c0 -4 -13 -13 -30 -19 -16 -6 -30 -18 -30 -27 0 -18 22 -21 51 -6 11 6 19 7 19 1 0 -5 -14 -14 -31 -20 -23 -8 -30 -15 -25 -27 3 -8 6 -18 6 -20 0 -3 9 0 21 6 11 6 25 9 32 7 7 -2 0 -10 -15 -17 -27 -13 -42 -57 -15 -47 62 23 81 16 22 -9 -25 -10 -33 -18 -28 -30 6 -15 17 -15 58 2 17 7 18 6 7 -8 -7 -9 -26 -21 -41 -26 l-28 -10 -22 102 c-27 127 -27 130 7 143 35 14 42 15 42 5z m879 -216 c25 -71 19 -88 -9 -24 -24 56 -43 182 -33 223 6 23 9 12 14 -55 3 -47 16 -112 28 -144z m-645 142 c9 -95 16 -232 12 -227 -8 8 -36 191 -36 237 0 60 18 52 24 -10z m1635 -68 c0 -41 -3 -80 -7 -86 -4 -7 -7 38 -7 100 -1 61 2 100 6 86 4 -14 7 -59 8 -100z m252 -76 c-27 -82 -49 -144 -50 -139 -1 15 90 298 94 293 3 -2 -18 -71 -44 -154z m-299 25 c8 -47 7 -62 -6 -88 -22 -41 -27 -39 -13 5 10 33 6 81 -18 184 -3 17 0 14 11 -10 9 -19 20 -60 26 -91z m782 111 c33 -12 86 -95 86 -133 0 -37 -20 -116 -31 -123 -7 -4 -163 40 -176 50 -2 2 42 172 52 204 5 14 34 16 69 2z m-1787 -32 c-3 -7 -5 -2 -5 12 0 14 2 19 5 13 2 -7 2 -19 0 -25z m920 -35 c28 -48 41 -142 25 -183 -7 -19 -9 -11 -10 41 -1 71 -20 133 -54 182 -16 23 -17 28 -5 18 10 -8 30 -34 44 -58z m-747 24 c-21 -35 -40 -145 -34 -193 3 -28 3 -28 -5 -4 -21 58 -6 145 33 205 24 37 29 31 6 -8z m49 -49 c-26 -50 -31 -166 -10 -208 11 -23 11 -23 -3 -6 -22 27 -36 106 -27 148 9 37 52 121 58 114 3 -2 -6 -24 -18 -48z m295 -100 l-7 -143 -18 40 c-10 22 -19 59 -19 81 0 43 37 180 47 171 3 -3 2 -70 -3 -149z m66 25 c11 -63 5 -182 -7 -169 -12 12 -32 154 -32 226 1 73 1 74 14 43 8 -17 19 -62 25 -100z m305 13 c17 -57 11 -117 -17 -163 -26 -44 -29 -41 -11 10 19 54 12 147 -16 213 l-21 49 25 -30 c14 -16 32 -52 40 -79z m-542 52 c-23 -59 -22 -209 0 -262 13 -30 14 -36 3 -27 -42 35 -60 197 -31 268 14 34 33 63 41 63 2 0 -4 -19 -13 -42z m344 -68 c20 -66 23 -177 5 -205 -10 -17 -11 -15 -6 20 8 53 -22 221 -47 265 l-19 35 25 -30 c14 -16 33 -55 42 -85z m-78 62 c30 -58 45 -150 33 -203 l-10 -44 -1 55 c-1 30 -12 94 -25 143 -12 48 -21 87 -19 87 1 0 11 -17 22 -38z m-346 -9 c-22 -54 -14 -177 15 -229 l22 -39 -24 29 c-48 57 -60 160 -26 234 24 52 35 56 13 5z m141 -5 c-10 -18 -23 -58 -30 -88 -12 -55 -12 -55 -13 -14 -1 37 44 152 56 140 2 -2 -3 -19 -13 -38z m45 8 c-26 -45 -51 -165 -44 -218 4 -32 3 -38 -4 -23 -26 55 -6 182 39 246 29 39 34 37 9 -5z m292 -30 c11 -25 18 -63 18 -96 -1 -84 -14 -101 -17 -21 -1 40 -10 92 -21 121 -22 59 -7 56 20 -4z m59 2 c32 -71 22 -174 -22 -229 l-19 -24 14 30 c29 60 30 174 2 248 -14 36 7 15 25 -25z m-1600 -48 c12 6 24 9 27 6 3 -3 -6 -11 -21 -17 -43 -20 -32 -54 13 -38 24 9 25 8 7 -6 -28 -21 -41 -19 -54 10 -14 31 -17 68 -3 46 7 -10 13 -11 31 -1z m2564 -73 l63 -22 -43 -250 c-23 -137 -49 -290 -58 -339 -9 -49 -16 -114 -16 -145 l0 -56 -19 30 c-20 34 -77 85 -94 85 -6 0 -1 10 10 23 11 12 27 36 36 52 24 49 157 521 157 559 0 31 -24 11 -43 -35 -10 -24 -15 -33 -12 -19 17 74 18 93 5 88 -15 -5 -134 -351 -181 -528 -17 -63 -34 -120 -38 -126 -3 -7 -29 -30 -58 -53 -75 -59 -122 -158 -131 -272 -7 -97 -19 -71 -21 47 -1 92 20 161 70 224 63 80 80 123 180 458 84 283 94 312 112 306 10 -3 47 -16 81 -27z m-2537 -35 c9 2 18 -3 20 -9 7 -21 -32 -15 -58 8 -24 20 -24 20 -1 9 12 -6 30 -10 39 -8z m1024 -93 c110 -64 253 -90 389 -68 98 15 164 40 235 90 31 22 59 39 60 37 12 -12 -49 -99 -91 -131 -56 -42 -238 -107 -302 -107 -50 0 -159 33 -232 70 -62 32 -133 100 -150 144 l-11 29 26 -17 c14 -9 48 -30 76 -47z m-665 9 l19 -23 -25 20 c-14 11 -27 21 -29 22 -2 2 0 3 6 3 5 0 18 -10 29 -22z m-355 -12 c-68 -24 -91 -97 -55 -169 15 -31 15 -31 -2 -15 -22 21 -31 116 -14 147 12 23 62 51 90 50 8 0 0 -6 -19 -13z m64 -6 c3 -6 -1 -7 -9 -4 -18 7 -21 14 -7 14 6 0 13 -4 16 -10z m260 -25 c29 -28 33 -71 10 -114 -24 -48 -63 -54 -100 -16 -50 49 -18 155 45 155 12 0 32 -11 45 -25z m1386 -24 c-11 -21 -49 -80 -84 -132 -35 -52 -85 -132 -113 -179 l-49 -85 -5 97 c-4 79 -9 102 -27 127 -25 33 -25 33 32 51 65 20 172 80 218 121 23 21 43 38 45 39 1 0 -6 -17 -17 -39z m740 -142 c-33 -96 -60 -170 -60 -164 -1 15 110 347 115 342 2 -2 -23 -82 -55 -178z m-2401 151 c23 -23 28 -88 8 -108 -7 -7 -24 -12 -40 -12 -55 0 -73 91 -25 125 28 19 33 19 57 -5z m48 -5 c-3 -3 -9 2 -12 12 -6 14 -5 15 5 6 7 -7 10 -15 7 -18z m289 -57 c-2 -13 -4 -3 -4 22 0 25 2 35 4 23 2 -13 2 -33 0 -45z m-280 0 c-3 -7 -5 -2 -5 12 0 14 2 19 5 13 2 -7 2 -19 0 -25z m253 -68 c-6 -11 -19 -24 -30 -30 -30 -16 -37 -12 -10 7 14 9 29 23 33 30 13 21 19 15 7 -7z m-293 -6 c-3 -3 -12 -4 -19 -1 -8 3 -5 6 6 6 11 1 17 -2 13 -5z m63 -39 c0 -17 -2 -17 -10 -5 -5 8 -10 24 -10 35 0 17 2 17 10 5 5 -8 10 -24 10 -35z m-177 -28 c-15 -19 -30 -32 -32 -30 -5 3 49 63 57 63 2 0 -9 -15 -25 -33z m1978 6 c-12 -20 -14 -14 -5 12 4 9 9 14 11 11 3 -2 0 -13 -6 -23z m-537 -3 c34 -12 32 -31 -7 -110 l-32 -65 -52 -5 -53 -6 -36 85 c-34 80 -35 85 -17 95 44 26 137 29 197 6z m-1335 -11 c38 -13 61 -54 61 -107 0 -71 -63 -110 -122 -75 -64 37 -70 145 -10 178 33 18 32 17 71 4z m1847 -46 c-8 -15 -15 -25 -16 -21 0 12 23 58 27 54 3 -2 -2 -17 -11 -33z m473 -122 c-7 -23 -14 -39 -16 -37 -3 2 1 23 8 45 7 23 14 39 16 37 3 -2 -1 -23 -8 -45z m306 -37 c17 -8 37 -25 44 -36 12 -19 9 -18 -18 5 -59 49 -157 30 -181 -35 -7 -19 -14 -98 -16 -182 l-4 -149 -42 -71 c-23 -38 -47 -88 -54 -111 -11 -33 -13 -36 -13 -13 -1 14 22 70 49 124 l50 98 0 105 c0 132 14 218 40 253 11 15 20 36 20 47 0 20 0 20 48 0 26 -11 61 -27 77 -35z m-328 -36 c-3 -8 -6 -5 -6 6 -1 11 2 17 5 13 3 -3 4 -12 1 -19z m329 -27 c42 -26 74 -94 74 -159 0 -29 -4 -52 -10 -52 -5 0 -7 -6 -4 -13 3 -8 -3 -23 -13 -33 -10 -11 -13 -13 -8 -4 6 8 -7 0 -28 -17 -83 -72 -157 -22 -157 107 0 84 17 146 48 170 31 25 58 25 98 1z m-569 -463 c-3 -8 -6 -5 -6 6 -1 11 2 17 5 13 3 -3 4 -12 1 -19z"/>
        <path d="M2865 3530 c19 -36 19 -90 1 -160 -18 -68 -14 -75 9 -18 26 65 31 152 11 183 -23 35 -40 32 -21 -5z"/>
        <path d="M2037 3186 c-26 -24 -62 -85 -54 -92 2 -2 24 3 48 12 51 18 82 15 206 -21 103 -30 144 -32 167 -6 15 16 16 25 6 60 -12 44 -20 50 -40 26 -19 -22 -65 -18 -160 15 -104 36 -139 38 -173 6z"/>
        <path d="M2715 3179 c-93 -33 -108 -35 -131 -12 -15 16 -17 16 -31 -3 -18 -24 -27 -60 -20 -79 12 -30 58 -29 171 4 127 36 129 36 185 16 l41 -14 -15 37 c-20 48 -59 82 -93 81 -15 0 -63 -14 -107 -30z"/>
        <path d="M2634 3045 c-12 -9 -14 -14 -6 -15 8 0 12 -9 10 -22 -2 -18 4 -25 32 -35 50 -17 89 -15 135 6 40 18 40 19 15 29 -14 5 -45 13 -70 17 -25 4 -55 13 -67 21 -27 17 -25 17 -49 -1z"/>
        <path d="M2205 3029 c-65 -9 -105 -23 -105 -37 0 -12 70 -32 113 -32 20 0 55 7 77 16 32 13 38 19 29 30 -6 7 -8 18 -4 24 7 12 -22 11 -110 -1z"/>
        <path d="M2546 3005 c-3 -9 -5 -42 -4 -73 l1 -57 7 70 c7 75 6 85 -4 60z"/>
        <path d="M3660 3423 c-67 -19 -101 -76 -108 -178 -8 -130 45 -245 114 -245 44 0 109 73 123 138 22 104 10 188 -34 241 -26 31 -70 51 -95 44z m52 -34 c50 -27 75 -173 47 -273 -21 -75 -93 -112 -132 -68 -42 47 -62 195 -36 273 23 69 70 95 121 68z"/>
        <path d="M3076 2981 c-18 -20 -20 -37 -10 -87 3 -18 1 -41 -6 -54 -16 -29 -5 -38 20 -15 15 14 20 31 20 72 0 31 4 53 11 53 13 0 8 42 -7 47 -6 2 -18 -5 -28 -16z"/>
        <path d="M2731 2480 c72 -83 111 -100 165 -74 21 11 45 30 53 44 16 25 16 25 -17 -2 -26 -22 -44 -28 -79 -28 -41 0 -50 5 -111 63 l-67 62 56 -65z"/>
        <path d="M1062 2523 c5 -26 38 -29 38 -4 0 15 -6 21 -21 21 -14 0 -19 -5 -17 -17z"/>
        <path d="M3656 2198 c-24 -33 -21 -84 6 -102 44 -31 91 -13 104 41 15 60 -75 111 -110 61z m65 -8 c26 -15 26 -66 -1 -80 -14 -8 -26 -8 -40 0 -26 14 -27 65 -2 79 21 13 20 13 43 1z"/>
        <path d="M1770 3035 c-10 -13 -9 -15 10 -15 13 0 36 -15 56 -37 31 -34 34 -35 34 -14 0 25 -50 81 -73 81 -8 0 -20 -7 -27 -15z"/>
        <path d="M3080 1946 c0 -2 8 -10 18 -17 15 -13 16 -12 3 4 -13 16 -21 21 -21 13z"/>
        <path d="M3344 1687 c0 -37 -7 -75 -18 -94 -9 -18 -14 -33 -11 -33 13 0 45 87 44 120 -1 64 -14 70 -15 7z"/>
        <path d="M1643 1715 c-30 -13 -33 -18 -33 -58 0 -24 9 -70 20 -103 24 -70 113 -249 140 -284 11 -14 -2 20 -29 75 -60 122 -111 265 -111 310 0 37 11 49 60 63 29 8 31 10 10 11 -14 0 -40 -6 -57 -14z"/>
        <path d="M2134 1438 c4 -29 19 -82 33 -118 34 -88 236 -485 241 -472 3 11 -61 160 -166 387 -38 83 -77 174 -86 203 -10 28 -20 52 -23 52 -3 0 -2 -24 1 -52z"/>
        <path d="M2392 995 c0 -16 2 -22 5 -12 2 9 2 23 0 30 -3 6 -5 -1 -5 -18z"/>
    </g>
</svg>
