<svg xmlns="http://www.w3.org/2000/svg" width="13" height="13" viewBox="0 0 13 13" fill="none">
    <path
            d="M11.3305 1.17249H10.7289V0.226196H9.7262V1.17249H3.10837V0.226196H2.10567V1.17249H1.50405C0.674717 1.17249 0 1.80924 0 2.59192V10.9193C0 11.7019 0.674717 12.3387 1.50405 12.3387H11.3305C12.1599 12.3387 12.8346 11.7019 12.8346 10.9193V2.59192C12.8346 1.80924 12.1599 1.17249 11.3305 1.17249ZM11.8319 10.9193C11.8319 11.1802 11.607 11.3924 11.3305 11.3924H1.50405C1.22761 11.3924 1.0027 11.1802 1.0027 10.9193V4.67376H11.8319V10.9193ZM11.8319 3.72747H1.0027V2.59192C1.0027 2.33103 1.22761 2.11878 1.50405 2.11878H2.10567V3.06507H3.10837V2.11878H9.7262V3.06507H10.7289V2.11878H11.3305C11.607 2.11878 11.8319 2.33103 11.8319 2.59192V3.72747Z"
            fill="currentColor"
    />
    <path d="M2.90733 5.66736H1.90527V6.61365H2.90733V5.66736Z" fill="currentColor" />
    <path d="M4.91221 5.66736H3.91016V6.61365H4.91221V5.66736Z" fill="currentColor" />
    <path d="M6.91807 5.66736H5.91602V6.61365H6.91807V5.66736Z" fill="currentColor" />
    <path d="M8.92393 5.66736H7.92188V6.61365H8.92393V5.66736Z" fill="currentColor" />
    <path d="M10.9288 5.66736H9.92676V6.61365H10.9288V5.66736Z" fill="currentColor" />
    <path d="M2.90733 7.55994H1.90527V8.50623H2.90733V7.55994Z" fill="currentColor" />
    <path d="M4.91221 7.55994H3.91016V8.50623H4.91221V7.55994Z" fill="currentColor" />
    <path d="M6.91807 7.55994H5.91602V8.50623H6.91807V7.55994Z" fill="currentColor" />
    <path d="M8.92393 7.55994H7.92188V8.50623H8.92393V7.55994Z" fill="currentColor" />
    <path d="M2.90733 9.45251H1.90527V10.3988H2.90733V9.45251Z" fill="currentColor" />
    <path d="M4.91221 9.45251H3.91016V10.3988H4.91221V9.45251Z" fill="currentColor" />
    <path d="M6.91807 9.45251H5.91602V10.3988H6.91807V9.45251Z" fill="currentColor" />
    <path d="M8.92393 9.45251H7.92188V10.3988H8.92393V9.45251Z" fill="currentColor" />
    <path d="M10.9288 7.55994H9.92676V8.50623H10.9288V7.55994Z" fill="currentColor" />
</svg>
