<svg width="24" height="24" viewBox="0 0 24 24" fill="none" xmlns="http://www.w3.org/2000/svg">
<path fill-rule="evenodd" clip-rule="evenodd" d="M19.184 4.912L12 4.75L4.81597 4.912C4.17024 4.92663 3.54928 5.16335 3.05767 5.58228C2.56607 6.00121 2.23385 6.57676 2.11698 7.212C1.53523 10.3772 1.53523 13.6218 2.11698 16.787C2.23388 17.4224 2.56625 17.9981 3.05806 18.417C3.54987 18.836 4.17107 19.0726 4.81697 19.087L12 19.25L19.184 19.088C19.8297 19.0734 20.4507 18.8367 20.9423 18.4177C21.4339 17.9988 21.7661 17.4232 21.883 16.788C22.464 13.622 22.464 10.378 21.883 7.213C21.7661 6.5776 21.4337 6.00192 20.9419 5.58297C20.4501 5.16402 19.8289 4.9274 19.183 4.913M4.84997 6.412L12 6.25L19.15 6.412C19.77 6.426 20.295 6.873 20.407 7.484C20.561 8.318 20.671 9.158 20.739 10H3.25997C3.32779 9.15623 3.4386 8.31648 3.59197 7.484C3.64641 7.1879 3.80124 6.91961 4.03039 6.72435C4.25954 6.52908 4.54899 6.41877 4.84997 6.412ZM3.18097 12C3.18097 13.512 3.31797 15.023 3.59297 16.516C3.70497 17.126 4.22997 17.574 4.84997 17.588L12 17.75L19.15 17.588C19.4508 17.581 19.74 17.4706 19.9689 17.2753C20.1979 17.0801 20.3526 16.8119 20.407 16.516C20.682 15.023 20.819 13.512 20.819 12H3.18097Z" fill="currentColor"/>
</svg>
