<svg xmlns="http://www.w3.org/2000/svg" width="11" height="11" viewBox="0 0 11 11" fill="none">
    <g id="Group">
        <g id="Group_2">
            <path
                    id="Vector"
                    d="M5.62891 0.768749C2.86766 0.768749 0.628906 3.0075 0.628906 5.76875C0.628906 8.53042 2.86766 10.7687 5.62891 10.7687C8.39016 10.7687 10.6289 8.53042 10.6289 5.76875C10.6289 3.0075 8.39016 0.768749 5.62891 0.768749ZM8.85974 4.7525L5.27349 8.33875C5.20016 8.4125 5.08099 8.4125 5.00807 8.33875L4.47807 7.80333C4.40516 7.73 4.28557 7.61 4.21307 7.53583L2.97974 6.23917C2.94349 6.20292 2.92432 6.15167 2.92432 6.10292C2.92432 6.055 2.94349 6.00833 2.97974 5.97208L3.52016 5.485C3.55682 5.4475 3.60557 5.42917 3.65391 5.42917C3.70141 5.42958 3.74891 5.44833 3.78516 5.485L5.00849 6.73292C5.08141 6.80708 5.20057 6.80708 5.27391 6.73292L8.06516 3.94917C8.13849 3.87542 8.25724 3.87542 8.33016 3.94917L8.86016 4.48458C8.93307 4.55792 8.93307 4.67875 8.85974 4.7525Z"
                    fill="#4385F5"
            />
        </g>
    </g>
</svg>
