<svg width="22" height="22" viewBox="0 0 22 22" fill="none" xmlns="http://www.w3.org/2000/svg">
<path d="M10.8661 15.2502C13.2877 15.2502 15.2508 13.2871 15.2508 10.8655C15.2508 8.44393 13.2877 6.48083 10.8661 6.48083C8.44454 6.48083 6.48145 8.44393 6.48145 10.8655C6.48145 13.2871 8.44454 15.2502 10.8661 15.2502Z" stroke="currentColor" stroke-linecap="round" stroke-linejoin="round"/>
<path d="M1 15.2503V6.48087C1 3.45387 3.45387 1 6.48087 1H15.2503C18.2772 1 20.7311 3.45387 20.7311 6.48087V15.2503C20.7311 18.2772 18.2772 20.7311 15.2503 20.7311H6.48087C3.45387 20.7311 1 18.2772 1 15.2503Z" stroke="currentColor"/>
<path d="M16.8955 4.84763L16.9065 4.83545" stroke="currentColor" stroke-linecap="round" stroke-linejoin="round"/>
</svg>
