<svg xmlns="http://www.w3.org/2000/svg" width="19" height="19" viewBox="0 0 19 19" fill="none">
<path
        d="M17.8535 7.17318L12.0317 6.39694L9.50893 1.15723C9.50893 0.963165 9.31487 0.769104 9.12081 0.769104C8.92675 0.769104 8.73269 0.963165 8.73269 1.15723L6.20996 6.39694L0.388122 7.17318C0.194061 7.17318 0 7.36724 0 7.56131C0 7.75537 0 7.94943 0.194061 8.14349L4.46341 12.2187L3.4931 18.0405C3.4931 18.2346 3.4931 18.4287 3.68716 18.6227C3.88122 18.8168 4.07528 18.8168 4.26935 18.6227L9.50906 15.9059L14.7488 18.6227H14.9428C15.1369 18.6227 15.1369 18.6227 15.331 18.4287C15.525 18.2346 15.525 18.0405 15.525 17.8465L14.5547 12.0247L18.8241 7.94943C18.2419 7.94943 18.2419 7.75537 18.2419 7.56131C18.2419 7.36724 18.0478 7.17318 17.8537 7.17318H17.8535Z"
        fill="currentColor"
/>
</svg>
