<svg
        xmlns="http://www.w3.org/2000/svg"
        width="20"
        height="21"
        viewBox="0 0 20 21"
        fill="none"
>
    <g clip-path="url(#clip0_3485_10916)">
        <path
                d="M10.0013 2.16663C14.6038 2.16663 18.3346 5.89746 18.3346 10.5C18.3346 15.1025 14.6038 18.8333 10.0013 18.8333C5.3988 18.8333 1.66797 15.1025 1.66797 10.5C1.66797 5.89746 5.3988 2.16663 10.0013 2.16663ZM10.0013 3.83329C8.23319 3.83329 6.5375 4.53567 5.28726 5.78591C4.03701 7.03616 3.33464 8.73185 3.33464 10.5C3.33464 12.2681 4.03701 13.9638 5.28726 15.214C6.5375 16.4642 8.23319 17.1666 10.0013 17.1666C11.7694 17.1666 13.4651 16.4642 14.7153 15.214C15.9656 13.9638 16.668 12.2681 16.668 10.5C16.668 8.73185 15.9656 7.03616 14.7153 5.78591C13.4651 4.53567 11.7694 3.83329 10.0013 3.83329ZM10.0013 5.49996C10.2054 5.49999 10.4024 5.57492 10.5549 5.71056C10.7075 5.84619 10.8049 6.03308 10.8288 6.23579L10.8346 6.33329V10.155L13.0905 12.4108C13.2399 12.5608 13.3267 12.762 13.3332 12.9736C13.3396 13.1852 13.2653 13.3914 13.1253 13.5502C12.9852 13.709 12.79 13.8085 12.5792 13.8286C12.3685 13.8487 12.158 13.7878 11.9905 13.6583L11.9121 13.5891L9.41214 11.0891C9.28262 10.9595 9.19944 10.7908 9.17547 10.6091L9.16797 10.5V6.33329C9.16797 6.11228 9.25577 5.90032 9.41205 5.74404C9.56833 5.58776 9.78029 5.49996 10.0013 5.49996Z"
                fill="currentColor"
        />
    </g>
    <defs>
        <clipPath id="clip0_3485_10916">
            <rect
                    width="20"
                    height="20"
                    fill="white"
                    transform="translate(0 0.5)"
            />
        </clipPath>
    </defs>
</svg>
