<svg width="24" height="24" viewBox="0 0 24 24" fill="none" xmlns="http://www.w3.org/2000/svg">
<path d="M12 4C10.352 4 9 5.352 9 7V10H18C18.5304 10 19.0391 10.2107 19.4142 10.5858C19.7893 10.9609 20 11.4696 20 12V20C20 20.5304 19.7893 21.0391 19.4142 21.4142C19.0391 21.7893 18.5304 22 18 22H6C5.46957 22 4.96086 21.7893 4.58579 21.4142C4.21071 21.0391 4 20.5304 4 20V12C4 11.4696 4.21071 10.9609 4.58579 10.5858C4.96086 10.2107 5.46957 10 6 10H7V7C7 4.248 9.248 2 12 2C14.752 2 17 4.248 17 7C17 7.26522 16.8946 7.51957 16.7071 7.70711C16.5196 7.89464 16.2652 8 16 8C15.7348 8 15.4804 7.89464 15.2929 7.70711C15.1054 7.51957 15 7.26522 15 7C15 5.352 13.648 4 12 4ZM6 12V20H18V12H6Z" fill="currentColor"/>
</svg>
