<?xml version="1.0" encoding="UTF-8"?>
<!-- This file is generated by npm run build:icons -->
<svg xmlns="http://www.w3.org/2000/svg" xmlns:xlink="http://www.w3.org/1999/xlink" width="0" height="0">
<defs>
<symbol viewBox="0 0 16 16" fill="none" id="account">
    <path d="M8 0C9.06087 0 10.0783 0.421427 10.8284 1.17157C11.5786 1.92172 12 2.93913 12 4C12 5.06087 11.5786 6.07828 10.8284 6.82843C10.0783 7.57857 9.06087 8 8 8C6.93913 8 5.92172 7.57857 5.17157 6.82843C4.42143 6.07828 4 5.06087 4 4C4 2.93913 4.42143 1.92172 5.17157 1.17157C5.92172 0.421427 6.93913 0 8 0ZM8 10C12.42 10 16 11.79 16 14V16H0V14C0 11.79 3.58 10 8 10Z"
          fill="currentColor"></path>
</symbol>
<symbol viewBox="0 0 24 24" fill="none" id="alert">
<circle cx="12" cy="12" r="11" stroke="currentColor" stroke-width="2"></circle>
<path d="M12 7V12" stroke="currentColor" stroke-width="2" stroke-linecap="round" stroke-linejoin="round"></path>
<path d="M12 16V16.5" stroke="currentColor" stroke-width="2" stroke-linecap="round" stroke-linejoin="round"></path>
</symbol>
<symbol viewBox="0 0 32 32" fill="none" id="arrow-right">
    <path             fill-rule="evenodd"
            clip-rule="evenodd"
            d="M21.3463 14.7921L6.66634 14.7921C5.93301 14.7921 5.33301 15.3878 5.33301 16.1158C5.33301 16.8439 5.93301 17.4395 6.66634 17.4395L21.3463 17.4395L21.3463 19.8089C21.3463 20.4046 22.0663 20.6958 22.4797 20.2722L26.1863 16.5791C26.4397 16.3144 26.4397 15.904 26.1863 15.6393L22.4797 11.9462C22.0663 11.5226 21.3463 11.827 21.3463 12.4095L21.3463 14.7921Z"
            fill="currentColor"
    ></path>
</symbol>
<symbol viewBox="0 0 19 18" fill="none" id="arrow-short">
    <path             d="M8.92578 15.0806L2.78 8.93464"
            stroke="currentColor"
            stroke-width="3"
            stroke-miterlimit="10"
            stroke-linecap="square"
    ></path>
    <path             d="M2.78 8.93465L8.92578 2.78872"
            stroke="currentColor"
            stroke-width="3"
            stroke-miterlimit="10"
            stroke-linecap="square"
    ></path>
    <path             d="M2.77914 8.93465L18.4707 8.93465"
            stroke="currentColor"
            stroke-width="3"
            stroke-miterlimit="10"
    ></path>
</symbol>
<symbol viewBox="0 0 20 20" fill="none" id="arrow-top">
<g clip-path="url(#clip0_1701_10277)">
<path d="M6.23145 4.45198L14.923 4.45209" stroke="currentColor" stroke-width="3" stroke-miterlimit="10" stroke-linecap="square"></path>
<path d="M14.9229 4.45208L14.923 13.1436" stroke="currentColor" stroke-width="3" stroke-miterlimit="10" stroke-linecap="square"></path>
<path d="M14.9228 4.4521L3.82715 15.5477" stroke="currentColor" stroke-width="3" stroke-miterlimit="10"></path>
</g>
<defs>
<clipPath id="clip0_1701_10277">
<rect width="20" height="20" fill="white"></rect>
</clipPath>
</defs>
</symbol>
<symbol viewBox="0 0 24 24" fill="none" id="Back Arrow">
<path d="M9.71729 5L3.00021 12L9.71729 19" stroke="currentColor" stroke-width="2" stroke-linecap="round" stroke-linejoin="round"></path>
<line x1="1" y1="-1" x2="16.7331" y2="-1" transform="matrix(1 0 0 -1 3.26709 11.0317)" stroke="currentColor" stroke-width="2" stroke-linecap="round"></line>
</symbol>
<symbol viewBox="0 0 16 16" fill="none" id="barber">
    <g             transform="translate(0.000000,32.000000) scale(0.100000,-0.100000)"
            fill="currentColor"
            stroke="none"
    >
        <path d="M2470 4420 c-41 -5 -112 -21 -158 -36 -189 -61 -319 -197 -330 -346 -4 -55 -6 -57 -36 -64 -49 -10 -124 -54 -161 -96 -80 -87 -120 -234 -80 -294 13 -20 17 -50 19 -118 1 -87 4 -97 63 -236 34 -80 60 -146 58 -148 -2 -2 -12 1 -23 7 -25 13 -67 0 -80 -26 -29 -56 -22 -119 29 -283 26 -85 34 -100 52 -100 19 0 19 1 5 13 -24 17 -68 178 -75 268 -5 68 -3 79 14 96 25 25 63 20 92 -11 24 -26 41 -120 41 -233 0 -76 -2 -83 -19 -83 -21 0 -51 35 -51 58 0 9 7 11 20 7 24 -8 26 11 5 39 -8 11 -15 41 -15 66 0 55 -28 92 -49 66 -7 -8 -8 -17 -3 -20 5 -3 12 -40 15 -83 3 -43 11 -91 18 -108 7 -16 13 -34 13 -40 1 -5 15 -11 31 -13 l31 -3 -4 -72 c-4 -60 -10 -81 -38 -127 -41 -68 -70 -156 -79 -235 -9 -81 11 -218 42 -288 14 -31 24 -59 22 -61 -2 -2 -57 -32 -121 -66 l-117 -61 -7 28 c-12 52 -34 83 -77 110 -23 15 -48 34 -54 42 -20 24 -15 96 12 177 21 64 24 81 15 120 -6 25 -33 172 -61 327 -59 334 -145 726 -165 758 -18 29 -24 -30 -22 -196 1 -99 -2 -187 -7 -194 -5 -10 -4 -12 3 -7 7 4 12 2 12 -3 0 -6 -5 -11 -11 -11 -6 0 -3 -8 7 -17 16 -17 16 -18 -7 -23 l-24 -6 25 -7 c22 -7 23 -8 8 -18 -25 -14 -22 -28 5 -22 22 4 22 4 -3 -18 l-25 -22 32 5 c18 2 30 1 27 -4 -3 -4 -14 -8 -24 -8 -10 0 -22 -5 -26 -12 -5 -8 -2 -9 11 -4 18 7 18 6 0 -14 -21 -23 -18 -24 22 -10 26 9 26 9 9 -5 -10 -8 -24 -16 -30 -18 -6 -2 -8 -8 -4 -12 4 -4 21 -3 37 3 41 14 39 9 -4 -17 -47 -27 -46 -46 2 -26 50 21 54 11 4 -15 -23 -11 -41 -25 -41 -30 0 -13 4 -13 47 5 42 18 46 18 37 4 -3 -6 -22 -17 -40 -25 -35 -15 -46 -34 -19 -34 9 0 29 7 45 15 17 9 30 11 30 6 0 -13 -58 -44 -68 -37 -4 2 -9 -4 -9 -15 -2 -23 7 -24 52 -5 51 22 43 -1 -10 -26 -25 -12 -45 -28 -45 -35 0 -16 0 -16 43 2 74 31 74 8 1 -27 -59 -27 -45 -48 16 -24 46 18 50 19 50 8 0 -5 -20 -19 -45 -31 -25 -12 -45 -29 -45 -37 0 -18 3 -18 50 6 46 23 51 24 45 7 -3 -7 -25 -22 -48 -35 l-43 -23 8 -77 c4 -42 15 -113 24 -157 17 -82 15 -157 -6 -209 -10 -28 -11 -28 -24 -10 -38 56 -66 251 -66 461 l0 132 -35 -21 c-52 -30 -55 -14 -3 18 42 27 40 47 -2 24 -12 -6 -24 -9 -28 -6 -3 4 9 12 26 18 18 7 32 16 32 20 0 11 -18 10 -41 -2 -10 -6 -19 -7 -19 -2 0 5 14 15 30 22 16 7 30 19 30 26 0 18 -4 17 -40 -1 -17 -9 -30 -11 -30 -5 0 5 16 16 36 25 19 8 33 19 29 24 -6 11 -31 5 -52 -12 -9 -6 -13 -6 -13 2 0 7 13 20 30 29 41 23 41 48 0 27 -33 -17 -40 -18 -40 -7 0 4 14 15 30 24 17 9 30 24 30 34 0 14 -4 13 -35 -5 -26 -15 -35 -17 -35 -7 0 8 14 19 30 26 17 7 30 19 30 26 0 8 -3 13 -7 13 -20 -3 -24 2 -13 16 19 23 5 28 -29 10 -17 -8 -31 -11 -31 -6 0 6 14 17 30 26 17 9 30 20 30 26 0 9 -16 7 -57 -8 -7 -3 -13 -1 -13 4 0 5 14 14 30 20 17 6 30 19 30 28 0 13 -4 15 -12 8 -21 -16 -48 -23 -48 -12 0 5 11 15 25 21 25 11 37 45 13 35 -7 -3 -21 -8 -30 -12 -11 -4 -18 -3 -18 4 0 6 3 11 8 11 4 0 15 7 26 15 24 19 12 39 -15 24 -29 -15 -37 -2 -11 17 31 22 28 42 -6 37 l-27 -4 22 17 c30 22 29 34 -2 34 -14 0 -25 5 -25 10 0 6 7 10 15 10 8 0 15 7 15 15 0 8 -7 15 -15 15 -8 0 -15 5 -15 10 0 6 5 10 10 10 20 0 10 28 -13 35 -19 6 -19 8 -5 12 25 6 22 19 -5 28 -19 6 -19 8 -5 12 25 6 22 20 -9 50 -18 17 -22 24 -11 20 25 -9 22 11 -4 34 -13 10 -17 18 -10 19 6 0 12 -5 12 -12 0 -6 3 -8 7 -5 10 11 -48 67 -85 82 -50 22 -62 11 -62 -51 0 -91 93 -723 110 -753 6 -11 8 1 5 34 -4 36 -3 44 4 30 16 -33 12 -73 -7 -87 -18 -13 -18 -17 5 -138 38 -202 94 -461 104 -484 5 -11 14 -29 21 -38 10 -14 8 -21 -15 -42 -51 -47 -60 -111 -27 -184 19 -42 19 -43 0 -75 -40 -65 -13 -183 52 -230 33 -24 96 -26 130 -3 32 21 58 73 58 116 l0 31 26 -20 c48 -38 59 -5 20 62 -32 55 -49 169 -35 222 10 37 68 105 89 105 5 0 -9 -17 -31 -38 -69 -64 -70 -153 -4 -219 26 -26 41 -33 73 -33 52 0 102 34 127 87 18 38 29 46 124 90 57 26 108 50 113 51 4 2 8 -8 8 -22 0 -77 142 -425 303 -738 55 -109 102 -196 104 -194 2 2 -24 84 -57 182 -228 662 -258 770 -239 883 17 106 19 108 61 58 22 -27 38 -59 43 -86 5 -29 19 -57 42 -82 43 -48 162 -123 229 -146 62 -20 62 -20 36 -39 -25 -17 -46 -86 -38 -120 4 -13 3 -24 -1 -24 -15 0 -165 171 -200 228 -19 31 -32 46 -28 32 16 -54 71 -144 135 -218 37 -43 74 -91 82 -107 27 -53 50 -147 72 -295 l22 -145 0 188 c-1 177 0 189 19 203 11 8 36 14 55 12 l35 -3 6 -130 c9 -180 12 -182 19 -15 l5 145 19 -35 c30 -55 17 -192 -33 -355 -23 -71 -41 -134 -41 -140 0 -5 43 76 94 180 113 227 174 322 258 400 62 58 208 159 216 150 12 -12 -42 -117 -147 -285 -177 -285 -292 -484 -263 -455 5 6 89 128 186 272 97 144 176 261 176 259 0 -2 -23 -66 -51 -142 -27 -77 -65 -182 -84 -234 -18 -52 -40 -115 -49 -139 -9 -24 -15 -45 -13 -47 1 -1 38 72 81 164 73 155 135 304 266 642 29 74 59 148 67 163 l14 28 52 -31 c29 -17 84 -47 123 -67 l71 -36 -45 -151 c-49 -165 -67 -208 -112 -260 -41 -46 -77 -130 -84 -196 -8 -70 14 -192 47 -257 25 -48 96 -126 84 -90 -48 132 -48 253 -3 353 52 113 97 150 163 132 51 -13 77 -60 81 -144 4 -66 1 -79 -33 -155 -46 -101 -54 -153 -30 -203 22 -45 35 -46 35 -3 0 53 24 119 65 183 63 97 60 95 107 78 181 -64 296 246 151 407 -24 27 -52 44 -90 56 -30 10 -57 22 -59 28 -10 24 69 467 115 657 28 112 68 282 90 378 71 317 115 386 198 316 47 -39 77 -42 108 -12 18 18 24 32 20 46 -4 12 1 31 14 49 44 61 47 165 7 226 -21 31 -86 65 -126 65 -39 0 -86 -24 -101 -51 -6 -12 -15 -63 -19 -113 -5 -59 -20 -132 -43 -202 -19 -60 -43 -141 -53 -180 -17 -70 -18 -71 -34 -50 -44 56 -44 63 -1 134 60 100 90 171 97 233 9 78 -7 120 -66 169 -43 36 -49 46 -55 93 -3 28 -20 81 -37 115 -40 84 -95 122 -176 122 -126 0 -200 -110 -190 -283 5 -88 26 -144 91 -241 28 -43 32 -58 32 -113 0 -54 -3 -66 -20 -75 -43 -25 -65 -57 -65 -95 0 -33 61 -227 75 -242 3 -3 19 0 35 6 17 6 30 8 30 5 0 -18 -105 -404 -147 -539 l-46 -153 -134 70 c-74 39 -138 68 -142 65 -5 -2 -28 -52 -51 -110 -24 -58 -45 -103 -47 -101 -3 2 17 57 43 123 26 65 78 208 115 318 37 110 68 197 68 192 1 -4 -10 -60 -24 -124 -27 -124 -27 -164 0 -67 9 33 31 111 50 174 18 63 45 160 60 215 14 55 40 141 56 192 33 102 30 133 -16 133 -19 0 -27 -9 -43 -52 -37 -100 -261 -803 -287 -903 -58 -221 -62 -230 -90 -231 -76 -5 -259 -157 -344 -286 -25 -38 -48 -68 -53 -68 -4 0 -8 14 -8 30 0 35 34 107 124 258 35 59 79 139 98 177 36 72 88 212 88 237 0 8 11 25 25 38 l24 23 12 -29 c20 -50 22 -173 5 -248 -9 -38 -15 -71 -12 -73 2 -2 12 29 21 69 21 85 23 192 6 266 -12 48 -11 57 9 104 31 71 36 170 16 323 -9 72 -19 149 -22 171 -5 41 -4 42 31 48 42 8 64 39 97 136 26 79 28 168 4 204 -20 32 -65 35 -91 6 -10 -11 -20 -18 -23 -16 -2 3 34 83 82 178 50 101 90 197 97 230 15 76 4 156 -32 224 -16 31 -29 62 -29 70 0 25 32 94 44 94 6 0 38 -21 70 -46 l59 -47 -6 89 c-11 159 -74 298 -184 407 -136 134 -274 190 -498 201 -55 2 -134 1 -175 -4z m216 -50 c-54 -17 -156 -77 -156 -91 0 -3 24 1 53 9 31 8 95 14 157 14 120 0 199 -20 280 -72 49 -31 165 -148 156 -157 -2 -2 -23 9 -47 27 -56 40 -132 61 -221 61 -123 0 -217 -40 -300 -129 -71 -76 -99 -142 -118 -276 -8 -53 -8 -47 -6 49 2 98 5 116 30 165 80 155 178 215 376 229 l105 7 -60 13 c-142 32 -316 -38 -405 -161 -41 -57 -36 -35 8 37 46 74 115 127 201 153 77 24 62 29 -23 7 -206 -54 -322 -269 -272 -504 9 -41 14 -76 12 -78 -2 -2 -14 20 -26 49 -18 41 -24 79 -29 163 l-5 110 -12 -50 c-7 -27 -13 -86 -13 -130 -2 -94 -15 -85 -30 21 -31 219 100 469 280 534 30 10 70 19 89 19 32 0 30 -2 -24 -19z m-344 -43 c-57 -61 -113 -165 -132 -247 -16 -66 -17 -190 -2 -244 16 -55 6 -58 -17 -5 -66 148 -8 377 125 498 73 67 91 65 26 -2z m64 -69 c-90 -143 -125 -330 -90 -488 6 -25 6 -25 -20 5 -102 118 -52 405 87 506 22 16 44 29 48 29 5 0 -6 -24 -25 -52z m-251 -68 c-45 -88 -56 -261 -21 -345 8 -19 12 -35 9 -35 -3 0 2 -10 13 -21 19 -22 19 -22 -3 -11 -12 7 -44 17 -71 23 -71 15 -121 -1 -186 -60 -29 -26 -65 -51 -80 -55 -30 -7 -77 11 -84 32 -3 11 0 12 16 3 44 -24 71 -13 131 49 38 39 69 62 89 66 42 9 42 28 0 21 -18 -3 -42 -9 -52 -13 -13 -5 -17 -4 -12 4 4 6 24 17 46 23 35 11 44 9 107 -22 37 -18 72 -35 77 -37 5 -3 0 8 -11 24 -30 42 -46 110 -38 163 9 69 34 152 57 189 25 40 34 42 13 2z m911 -124 c60 -28 127 -92 163 -157 l25 -44 -39 34 c-129 112 -338 121 -493 21 -32 -20 -69 -50 -81 -66 l-23 -29 17 30 c55 95 195 175 305 175 25 0 39 4 35 10 -10 16 -139 12 -192 -6 -105 -36 -176 -115 -219 -245 l-24 -74 5 63 c6 82 32 139 90 201 105 113 292 150 431 87z m8 -167 c30 -11 65 -28 77 -38 l22 -18 -19 -49 -18 -48 -10 32 c-31 109 -207 145 -363 73 -50 -23 -61 -26 -43 -11 30 25 95 60 130 71 52 15 168 10 224 -12z m-51 -209 c56 -21 109 -68 125 -111 l10 -25 -45 22 c-24 13 -65 26 -91 31 l-47 7 35 6 35 6 -60 23 c-33 13 -88 26 -122 28 -35 3 -63 9 -63 14 0 25 154 25 223 -1z m-1080 -12 c20 -10 16 -13 -38 -24 -80 -17 -127 -17 -150 0 -18 13 -15 14 33 14 28 1 60 5 69 11 24 14 60 14 86 -1z m307 -48 c155 -33 249 -36 365 -10 127 29 222 35 255 18 13 -7 35 -29 48 -48 25 -37 26 -47 6 -225 -6 -56 -4 -64 26 -113 29 -46 34 -66 44 -160 5 -59 10 -135 9 -168 -1 -105 -61 -271 -117 -323 -16 -15 -24 -31 -21 -42 6 -16 -18 -49 -35 -49 -5 0 -33 25 -63 55 -43 43 -64 56 -97 61 -35 6 -41 10 -36 27 8 33 -5 75 -32 102 -32 32 -41 25 -13 -11 28 -35 29 -84 1 -84 -11 0 -37 -9 -57 -20 -48 -26 -77 -25 -120 1 -18 12 -43 19 -53 16 -16 -4 -20 0 -20 22 0 33 16 51 46 51 21 0 23 6 29 85 8 97 3 191 -12 206 -6 6 -8 -11 -5 -48 2 -33 -3 -88 -12 -126 -13 -55 -23 -75 -52 -103 -33 -30 -36 -38 -32 -72 6 -38 5 -39 -39 -50 -32 -9 -58 -27 -92 -62 -26 -28 -53 -50 -59 -50 -14 0 -31 31 -25 46 2 6 -11 23 -30 37 -42 32 -89 120 -117 217 -19 68 -20 91 -14 250 6 158 8 179 30 216 12 22 30 47 39 54 13 11 15 26 9 89 -10 124 23 198 100 220 43 13 41 13 146 -9z m-351 -58 c-24 -16 -57 -43 -72 -61 -32 -38 -36 -23 -6 25 23 38 62 63 98 64 21 0 19 -4 -20 -28z m1160 2 c65 -19 101 -52 101 -93 l0 -30 -44 44 c-24 24 -66 55 -93 69 -55 29 -40 33 36 10z m-1109 -33 c0 -10 -122 -102 -128 -96 -9 8 36 67 64 86 30 20 64 25 64 10z m1112 -39 c44 -29 70 -65 62 -87 -6 -14 -8 -13 -21 4 -7 11 -41 41 -73 66 -33 26 -60 50 -60 55 0 12 42 -6 92 -38z m-1115 -38 c2 -5 -9 -17 -24 -26 -16 -9 -38 -26 -50 -38 l-23 -21 0 25 c0 18 11 33 37 51 38 25 54 28 60 9z m1119 -49 c18 -18 34 -41 34 -51 0 -15 -6 -13 -32 13 -18 17 -48 38 -65 47 -18 9 -33 23 -33 31 0 22 54 -1 96 -40z m674 6 c132 -97 129 -336 -7 -491 -55 -62 -63 -81 -63 -142 l0 -53 -15 29 c-29 55 -14 104 49 165 42 40 50 78 14 66 -63 -20 -84 -17 -115 14 -60 60 -88 204 -59 303 17 60 55 114 90 129 28 11 75 3 106 -20z m-740 -26 c33 -19 21 -19 -21 0 -19 8 -27 14 -19 14 8 0 26 -6 40 -14z m-2019 -12 c13 -16 12 -17 -3 -4 -10 7 -18 15 -18 17 0 8 8 3 21 -13z m978 10 c-1 -12 -89 -74 -89 -64 0 19 52 71 71 71 10 0 19 -3 18 -7z m-1062 -45 c-3 -7 -5 -2 -5 12 0 14 2 19 5 13 2 -7 2 -19 0 -25z m2173 6 c0 -2 -9 0 -20 6 -11 6 -20 13 -20 16 0 2 9 0 20 -6 11 -6 20 -13 20 -16z m-2090 -140 c34 -140 95 -527 86 -549 -10 -27 -26 -16 -26 18 0 76 -66 479 -105 642 -6 23 -5 27 4 19 7 -6 25 -64 41 -130z m1 -297 c30 -178 35 -251 12 -197 -12 28 -94 546 -92 582 1 31 43 -169 80 -385z m49 343 c0 -5 -2 -10 -4 -10 -3 0 -8 5 -11 10 -3 6 -1 10 4 10 6 0 11 -4 11 -10z m3211 -86 c79 -41 78 -198 -2 -257 -15 -11 -33 -17 -40 -14 -10 3 -8 7 6 12 58 22 92 93 80 166 -15 89 -107 121 -166 58 -15 -17 -31 -47 -35 -67 -9 -58 -15 -62 -9 -7 10 101 86 151 166 109z m-2925 -214 c48 -212 134 -649 134 -680 0 -14 -9 -48 -20 -77 -10 -28 -23 -92 -28 -142 -6 -55 -16 -101 -27 -117 -23 -35 -29 -25 -9 15 9 18 19 71 23 119 5 54 16 106 29 136 12 27 22 57 22 68 0 19 -92 475 -145 721 -14 64 -24 125 -24 135 1 13 2 13 6 -3 2 -11 20 -90 39 -175z m2634 163 c22 -20 32 -39 35 -68 2 -22 2 -31 -1 -20 -20 78 -56 113 -81 79 -13 -18 -18 -7 -7 20 9 22 19 20 54 -11z m236 -1 c40 -26 46 -117 11 -158 -30 -34 -52 -27 -72 21 -19 43 -19 67 -1 110 15 34 37 44 62 27z m-261 -98 c14 -20 20 -44 19 -84 0 -67 -26 -120 -83 -173 -24 -22 -39 -43 -35 -50 4 -7 15 -24 25 -38 18 -26 18 -27 -7 -50 -62 -57 -102 -145 -129 -281 -4 -22 -11 -28 -30 -28 -14 0 -25 5 -25 11 0 27 43 176 62 213 17 34 19 49 12 100 -4 34 -8 89 -9 124 l0 63 57 52 c52 47 59 59 79 130 19 65 24 74 33 58 6 -10 20 -31 31 -47z m-787 -15 c18 -33 9 -97 -25 -188 -29 -77 -48 -99 -78 -88 -15 6 -16 19 -12 115 5 116 12 139 54 171 31 25 43 23 61 -10z m966 -44 l17 -30 -20 24 c-12 13 -21 28 -21 34 0 12 0 11 24 -28z m-2958 -207 c4 -7 4 -10 -1 -6 -4 4 -14 0 -21 -10 -12 -16 -13 -16 -14 0 0 9 6 19 13 21 6 3 13 6 14 6 1 1 5 -5 9 -11z m2499 -40 c23 -56 45 -180 35 -198 -5 -10 -20 -25 -34 -34 -24 -15 -26 -15 -37 5 -22 42 -59 163 -59 195 0 21 7 37 23 47 35 25 57 21 72 -15z m285 -158 c0 -25 -111 -360 -120 -360 -4 0 -11 7 -14 16 -14 37 -3 98 44 247 28 87 50 162 50 165 0 14 40 -54 40 -68z m-2874 29 l-48 -30 6 -50 c4 -27 10 -57 13 -67 3 -9 3 -14 -2 -10 -12 11 -33 115 -26 127 11 18 74 60 90 61 8 0 -7 -14 -33 -31z m1597 0 c25 -7 60 -32 102 -73 65 -65 105 -83 148 -67 13 5 29 16 36 25 7 9 17 13 22 11 7 -5 11 7 22 85 3 18 5 15 6 -10 4 -114 -75 -196 -169 -175 -20 4 -60 37 -118 96 -63 64 -97 90 -121 95 -23 5 -29 9 -19 15 18 12 45 11 91 -2z m-683 -32 c0 -5 -4 -5 -10 -2 -5 3 -10 14 -10 23 0 15 2 15 10 2 5 -8 10 -19 10 -23z m420 23 c0 -5 -10 -10 -23 -10 -30 0 -58 -20 -143 -101 -76 -72 -105 -89 -158 -89 -50 0 -116 64 -116 112 0 7 10 -7 21 -30 29 -58 70 -78 125 -63 45 13 73 36 128 106 34 43 30 40 -26 -17 -42 -44 -74 -68 -89 -69 -73 -4 -102 12 -125 68 -21 49 -16 63 6 19 24 -48 35 -56 78 -56 43 0 78 19 127 70 22 23 54 48 70 56 35 16 125 19 125 4z m-1292 -32 c26 -26 2 -75 -31 -62 -26 10 -32 45 -11 61 22 16 27 16 42 1z m1272 -11 c0 -2 -12 -14 -27 -28 l-28 -24 24 28 c23 25 31 32 31 24z m251 -34 c10 -12 5 -11 -18 6 -18 12 -33 24 -33 27 0 9 37 -15 51 -33z m-131 12 c11 -13 8 -15 -15 -15 -23 0 -26 2 -15 15 7 8 14 15 15 15 1 0 8 -7 15 -15z m-2 -39 c24 9 38 8 80 -10 28 -12 54 -24 57 -27 10 -11 -165 -20 -237 -13 l-70 7 58 31 c52 27 60 30 71 16 9 -12 17 -13 41 -4z m-602 -144 c0 -91 4 -116 27 -170 24 -61 25 -66 11 -105 -39 -109 -30 -195 48 -471 21 -76 37 -140 35 -143 -6 -6 -77 184 -99 267 -13 49 -21 110 -22 175 -1 76 -7 118 -26 175 -34 103 -35 262 -3 333 12 26 23 47 25 47 2 0 3 -48 4 -108z m-777 85 c-26 -21 -79 -46 -79 -38 0 12 48 40 69 41 8 0 12 -1 10 -3z m1249 -17 c82 -26 146 -25 227 2 l66 21 49 -23 c28 -13 50 -25 50 -28 0 -3 -9 -20 -21 -39 -24 -38 -65 -63 -105 -63 -21 0 -25 3 -19 18 18 44 17 49 -15 56 -50 10 -174 7 -230 -5 -50 -11 -51 -12 -45 -40 8 -33 -2 -36 -45 -14 -29 15 -70 64 -70 85 0 9 73 49 90 50 3 0 34 -9 68 -20z m670 -110 c0 -25 -3 -55 -6 -68 -4 -13 -7 26 -7 85 -1 74 1 96 7 68 4 -22 7 -60 6 -85z m-1918 72 c0 -4 -13 -13 -30 -19 -16 -6 -30 -18 -30 -27 0 -18 22 -21 51 -6 11 6 19 7 19 1 0 -5 -14 -14 -31 -20 -23 -8 -30 -15 -25 -27 3 -8 6 -18 6 -20 0 -3 9 0 21 6 11 6 25 9 32 7 7 -2 0 -10 -15 -17 -27 -13 -42 -57 -15 -47 62 23 81 16 22 -9 -25 -10 -33 -18 -28 -30 6 -15 17 -15 58 2 17 7 18 6 7 -8 -7 -9 -26 -21 -41 -26 l-28 -10 -22 102 c-27 127 -27 130 7 143 35 14 42 15 42 5z m879 -216 c25 -71 19 -88 -9 -24 -24 56 -43 182 -33 223 6 23 9 12 14 -55 3 -47 16 -112 28 -144z m-645 142 c9 -95 16 -232 12 -227 -8 8 -36 191 -36 237 0 60 18 52 24 -10z m1635 -68 c0 -41 -3 -80 -7 -86 -4 -7 -7 38 -7 100 -1 61 2 100 6 86 4 -14 7 -59 8 -100z m252 -76 c-27 -82 -49 -144 -50 -139 -1 15 90 298 94 293 3 -2 -18 -71 -44 -154z m-299 25 c8 -47 7 -62 -6 -88 -22 -41 -27 -39 -13 5 10 33 6 81 -18 184 -3 17 0 14 11 -10 9 -19 20 -60 26 -91z m782 111 c33 -12 86 -95 86 -133 0 -37 -20 -116 -31 -123 -7 -4 -163 40 -176 50 -2 2 42 172 52 204 5 14 34 16 69 2z m-1787 -32 c-3 -7 -5 -2 -5 12 0 14 2 19 5 13 2 -7 2 -19 0 -25z m920 -35 c28 -48 41 -142 25 -183 -7 -19 -9 -11 -10 41 -1 71 -20 133 -54 182 -16 23 -17 28 -5 18 10 -8 30 -34 44 -58z m-747 24 c-21 -35 -40 -145 -34 -193 3 -28 3 -28 -5 -4 -21 58 -6 145 33 205 24 37 29 31 6 -8z m49 -49 c-26 -50 -31 -166 -10 -208 11 -23 11 -23 -3 -6 -22 27 -36 106 -27 148 9 37 52 121 58 114 3 -2 -6 -24 -18 -48z m295 -100 l-7 -143 -18 40 c-10 22 -19 59 -19 81 0 43 37 180 47 171 3 -3 2 -70 -3 -149z m66 25 c11 -63 5 -182 -7 -169 -12 12 -32 154 -32 226 1 73 1 74 14 43 8 -17 19 -62 25 -100z m305 13 c17 -57 11 -117 -17 -163 -26 -44 -29 -41 -11 10 19 54 12 147 -16 213 l-21 49 25 -30 c14 -16 32 -52 40 -79z m-542 52 c-23 -59 -22 -209 0 -262 13 -30 14 -36 3 -27 -42 35 -60 197 -31 268 14 34 33 63 41 63 2 0 -4 -19 -13 -42z m344 -68 c20 -66 23 -177 5 -205 -10 -17 -11 -15 -6 20 8 53 -22 221 -47 265 l-19 35 25 -30 c14 -16 33 -55 42 -85z m-78 62 c30 -58 45 -150 33 -203 l-10 -44 -1 55 c-1 30 -12 94 -25 143 -12 48 -21 87 -19 87 1 0 11 -17 22 -38z m-346 -9 c-22 -54 -14 -177 15 -229 l22 -39 -24 29 c-48 57 -60 160 -26 234 24 52 35 56 13 5z m141 -5 c-10 -18 -23 -58 -30 -88 -12 -55 -12 -55 -13 -14 -1 37 44 152 56 140 2 -2 -3 -19 -13 -38z m45 8 c-26 -45 -51 -165 -44 -218 4 -32 3 -38 -4 -23 -26 55 -6 182 39 246 29 39 34 37 9 -5z m292 -30 c11 -25 18 -63 18 -96 -1 -84 -14 -101 -17 -21 -1 40 -10 92 -21 121 -22 59 -7 56 20 -4z m59 2 c32 -71 22 -174 -22 -229 l-19 -24 14 30 c29 60 30 174 2 248 -14 36 7 15 25 -25z m-1600 -48 c12 6 24 9 27 6 3 -3 -6 -11 -21 -17 -43 -20 -32 -54 13 -38 24 9 25 8 7 -6 -28 -21 -41 -19 -54 10 -14 31 -17 68 -3 46 7 -10 13 -11 31 -1z m2564 -73 l63 -22 -43 -250 c-23 -137 -49 -290 -58 -339 -9 -49 -16 -114 -16 -145 l0 -56 -19 30 c-20 34 -77 85 -94 85 -6 0 -1 10 10 23 11 12 27 36 36 52 24 49 157 521 157 559 0 31 -24 11 -43 -35 -10 -24 -15 -33 -12 -19 17 74 18 93 5 88 -15 -5 -134 -351 -181 -528 -17 -63 -34 -120 -38 -126 -3 -7 -29 -30 -58 -53 -75 -59 -122 -158 -131 -272 -7 -97 -19 -71 -21 47 -1 92 20 161 70 224 63 80 80 123 180 458 84 283 94 312 112 306 10 -3 47 -16 81 -27z m-2537 -35 c9 2 18 -3 20 -9 7 -21 -32 -15 -58 8 -24 20 -24 20 -1 9 12 -6 30 -10 39 -8z m1024 -93 c110 -64 253 -90 389 -68 98 15 164 40 235 90 31 22 59 39 60 37 12 -12 -49 -99 -91 -131 -56 -42 -238 -107 -302 -107 -50 0 -159 33 -232 70 -62 32 -133 100 -150 144 l-11 29 26 -17 c14 -9 48 -30 76 -47z m-665 9 l19 -23 -25 20 c-14 11 -27 21 -29 22 -2 2 0 3 6 3 5 0 18 -10 29 -22z m-355 -12 c-68 -24 -91 -97 -55 -169 15 -31 15 -31 -2 -15 -22 21 -31 116 -14 147 12 23 62 51 90 50 8 0 0 -6 -19 -13z m64 -6 c3 -6 -1 -7 -9 -4 -18 7 -21 14 -7 14 6 0 13 -4 16 -10z m260 -25 c29 -28 33 -71 10 -114 -24 -48 -63 -54 -100 -16 -50 49 -18 155 45 155 12 0 32 -11 45 -25z m1386 -24 c-11 -21 -49 -80 -84 -132 -35 -52 -85 -132 -113 -179 l-49 -85 -5 97 c-4 79 -9 102 -27 127 -25 33 -25 33 32 51 65 20 172 80 218 121 23 21 43 38 45 39 1 0 -6 -17 -17 -39z m740 -142 c-33 -96 -60 -170 -60 -164 -1 15 110 347 115 342 2 -2 -23 -82 -55 -178z m-2401 151 c23 -23 28 -88 8 -108 -7 -7 -24 -12 -40 -12 -55 0 -73 91 -25 125 28 19 33 19 57 -5z m48 -5 c-3 -3 -9 2 -12 12 -6 14 -5 15 5 6 7 -7 10 -15 7 -18z m289 -57 c-2 -13 -4 -3 -4 22 0 25 2 35 4 23 2 -13 2 -33 0 -45z m-280 0 c-3 -7 -5 -2 -5 12 0 14 2 19 5 13 2 -7 2 -19 0 -25z m253 -68 c-6 -11 -19 -24 -30 -30 -30 -16 -37 -12 -10 7 14 9 29 23 33 30 13 21 19 15 7 -7z m-293 -6 c-3 -3 -12 -4 -19 -1 -8 3 -5 6 6 6 11 1 17 -2 13 -5z m63 -39 c0 -17 -2 -17 -10 -5 -5 8 -10 24 -10 35 0 17 2 17 10 5 5 -8 10 -24 10 -35z m-177 -28 c-15 -19 -30 -32 -32 -30 -5 3 49 63 57 63 2 0 -9 -15 -25 -33z m1978 6 c-12 -20 -14 -14 -5 12 4 9 9 14 11 11 3 -2 0 -13 -6 -23z m-537 -3 c34 -12 32 -31 -7 -110 l-32 -65 -52 -5 -53 -6 -36 85 c-34 80 -35 85 -17 95 44 26 137 29 197 6z m-1335 -11 c38 -13 61 -54 61 -107 0 -71 -63 -110 -122 -75 -64 37 -70 145 -10 178 33 18 32 17 71 4z m1847 -46 c-8 -15 -15 -25 -16 -21 0 12 23 58 27 54 3 -2 -2 -17 -11 -33z m473 -122 c-7 -23 -14 -39 -16 -37 -3 2 1 23 8 45 7 23 14 39 16 37 3 -2 -1 -23 -8 -45z m306 -37 c17 -8 37 -25 44 -36 12 -19 9 -18 -18 5 -59 49 -157 30 -181 -35 -7 -19 -14 -98 -16 -182 l-4 -149 -42 -71 c-23 -38 -47 -88 -54 -111 -11 -33 -13 -36 -13 -13 -1 14 22 70 49 124 l50 98 0 105 c0 132 14 218 40 253 11 15 20 36 20 47 0 20 0 20 48 0 26 -11 61 -27 77 -35z m-328 -36 c-3 -8 -6 -5 -6 6 -1 11 2 17 5 13 3 -3 4 -12 1 -19z m329 -27 c42 -26 74 -94 74 -159 0 -29 -4 -52 -10 -52 -5 0 -7 -6 -4 -13 3 -8 -3 -23 -13 -33 -10 -11 -13 -13 -8 -4 6 8 -7 0 -28 -17 -83 -72 -157 -22 -157 107 0 84 17 146 48 170 31 25 58 25 98 1z m-569 -463 c-3 -8 -6 -5 -6 6 -1 11 2 17 5 13 3 -3 4 -12 1 -19z"></path>
        <path d="M2865 3530 c19 -36 19 -90 1 -160 -18 -68 -14 -75 9 -18 26 65 31 152 11 183 -23 35 -40 32 -21 -5z"></path>
        <path d="M2037 3186 c-26 -24 -62 -85 -54 -92 2 -2 24 3 48 12 51 18 82 15 206 -21 103 -30 144 -32 167 -6 15 16 16 25 6 60 -12 44 -20 50 -40 26 -19 -22 -65 -18 -160 15 -104 36 -139 38 -173 6z"></path>
        <path d="M2715 3179 c-93 -33 -108 -35 -131 -12 -15 16 -17 16 -31 -3 -18 -24 -27 -60 -20 -79 12 -30 58 -29 171 4 127 36 129 36 185 16 l41 -14 -15 37 c-20 48 -59 82 -93 81 -15 0 -63 -14 -107 -30z"></path>
        <path d="M2634 3045 c-12 -9 -14 -14 -6 -15 8 0 12 -9 10 -22 -2 -18 4 -25 32 -35 50 -17 89 -15 135 6 40 18 40 19 15 29 -14 5 -45 13 -70 17 -25 4 -55 13 -67 21 -27 17 -25 17 -49 -1z"></path>
        <path d="M2205 3029 c-65 -9 -105 -23 -105 -37 0 -12 70 -32 113 -32 20 0 55 7 77 16 32 13 38 19 29 30 -6 7 -8 18 -4 24 7 12 -22 11 -110 -1z"></path>
        <path d="M2546 3005 c-3 -9 -5 -42 -4 -73 l1 -57 7 70 c7 75 6 85 -4 60z"></path>
        <path d="M3660 3423 c-67 -19 -101 -76 -108 -178 -8 -130 45 -245 114 -245 44 0 109 73 123 138 22 104 10 188 -34 241 -26 31 -70 51 -95 44z m52 -34 c50 -27 75 -173 47 -273 -21 -75 -93 -112 -132 -68 -42 47 -62 195 -36 273 23 69 70 95 121 68z"></path>
        <path d="M3076 2981 c-18 -20 -20 -37 -10 -87 3 -18 1 -41 -6 -54 -16 -29 -5 -38 20 -15 15 14 20 31 20 72 0 31 4 53 11 53 13 0 8 42 -7 47 -6 2 -18 -5 -28 -16z"></path>
        <path d="M2731 2480 c72 -83 111 -100 165 -74 21 11 45 30 53 44 16 25 16 25 -17 -2 -26 -22 -44 -28 -79 -28 -41 0 -50 5 -111 63 l-67 62 56 -65z"></path>
        <path d="M1062 2523 c5 -26 38 -29 38 -4 0 15 -6 21 -21 21 -14 0 -19 -5 -17 -17z"></path>
        <path d="M3656 2198 c-24 -33 -21 -84 6 -102 44 -31 91 -13 104 41 15 60 -75 111 -110 61z m65 -8 c26 -15 26 -66 -1 -80 -14 -8 -26 -8 -40 0 -26 14 -27 65 -2 79 21 13 20 13 43 1z"></path>
        <path d="M1770 3035 c-10 -13 -9 -15 10 -15 13 0 36 -15 56 -37 31 -34 34 -35 34 -14 0 25 -50 81 -73 81 -8 0 -20 -7 -27 -15z"></path>
        <path d="M3080 1946 c0 -2 8 -10 18 -17 15 -13 16 -12 3 4 -13 16 -21 21 -21 13z"></path>
        <path d="M3344 1687 c0 -37 -7 -75 -18 -94 -9 -18 -14 -33 -11 -33 13 0 45 87 44 120 -1 64 -14 70 -15 7z"></path>
        <path d="M1643 1715 c-30 -13 -33 -18 -33 -58 0 -24 9 -70 20 -103 24 -70 113 -249 140 -284 11 -14 -2 20 -29 75 -60 122 -111 265 -111 310 0 37 11 49 60 63 29 8 31 10 10 11 -14 0 -40 -6 -57 -14z"></path>
        <path d="M2134 1438 c4 -29 19 -82 33 -118 34 -88 236 -485 241 -472 3 11 -61 160 -166 387 -38 83 -77 174 -86 203 -10 28 -20 52 -23 52 -3 0 -2 -24 1 -52z"></path>
        <path d="M2392 995 c0 -16 2 -22 5 -12 2 9 2 23 0 30 -3 6 -5 -1 -5 -18z"></path>
    </g>
</symbol>
<symbol viewBox="0 0 26 24" fill="none" id="bell">
<path d="M20.3333 9.01449C20.3333 7.15413 19.5607 5.36997 18.1855 4.0545C16.8102 2.73902 14.9449 2 13 2C11.0551 2 9.18982 2.73902 7.81455 4.0545C6.43928 5.36997 5.66667 7.15413 5.66667 9.01449C5.66667 14.9484 3.21304 17.809 1.86406 18.9333C1.6615 19.1021 1.79337 19.5362 2.05706 19.5362H8.52214C8.6391 19.5362 8.74073 19.6154 8.77521 19.7271C8.99911 20.4529 9.99866 23 13 23C16.0013 23 17.0009 20.4529 17.2248 19.7271C17.2593 19.6154 17.3609 19.5362 17.4779 19.5362H23.9429C24.2066 19.5362 24.3385 19.1021 24.1359 18.9333C22.787 17.809 20.3333 14.9484 20.3333 9.01449Z" stroke="currentColor" stroke-width="2" stroke-linecap="round" stroke-linejoin="round"></path>
</symbol>
<symbol viewBox="0 0 24 24" fill="none" id="calendar-add">
<path d="M4 8H20M4 8V16.8C4 17.92 4 18.48 4.218 18.908C4.40974 19.2843 4.71569 19.5903 5.092 19.782C5.519 20 6.079 20 7.197 20H16.804C17.922 20 18.481 20 18.908 19.782C19.284 19.59 19.59 19.284 19.782 18.908C20 18.48 20 17.922 20 16.804V8M4 8V7.2C4 6.08 4 5.52 4.218 5.092C4.41 4.715 4.715 4.41 5.092 4.218C5.52 4 6.08 4 7.2 4H8M20 8V7.197C20 6.079 20 5.519 19.782 5.092C19.5903 4.71569 19.2843 4.40974 18.908 4.218C18.48 4 17.92 4 16.8 4H16M8 4H16M8 4V2M16 4V2M14.5 14H12M12 14H9.5M12 14V11.5M12 14V16.5" stroke="currentColor" stroke-width="1.5" stroke-linecap="round" stroke-linejoin="round"></path>
</symbol>
<symbol viewBox="0 0 13 13" fill="none" id="calendar">
    <path             d="M11.3305 1.17249H10.7289V0.226196H9.7262V1.17249H3.10837V0.226196H2.10567V1.17249H1.50405C0.674717 1.17249 0 1.80924 0 2.59192V10.9193C0 11.7019 0.674717 12.3387 1.50405 12.3387H11.3305C12.1599 12.3387 12.8346 11.7019 12.8346 10.9193V2.59192C12.8346 1.80924 12.1599 1.17249 11.3305 1.17249ZM11.8319 10.9193C11.8319 11.1802 11.607 11.3924 11.3305 11.3924H1.50405C1.22761 11.3924 1.0027 11.1802 1.0027 10.9193V4.67376H11.8319V10.9193ZM11.8319 3.72747H1.0027V2.59192C1.0027 2.33103 1.22761 2.11878 1.50405 2.11878H2.10567V3.06507H3.10837V2.11878H9.7262V3.06507H10.7289V2.11878H11.3305C11.607 2.11878 11.8319 2.33103 11.8319 2.59192V3.72747Z"
            fill="currentColor"
    ></path>
    <path d="M2.90733 5.66736H1.90527V6.61365H2.90733V5.66736Z" fill="currentColor" ></path>
    <path d="M4.91221 5.66736H3.91016V6.61365H4.91221V5.66736Z" fill="currentColor" ></path>
    <path d="M6.91807 5.66736H5.91602V6.61365H6.91807V5.66736Z" fill="currentColor" ></path>
    <path d="M8.92393 5.66736H7.92188V6.61365H8.92393V5.66736Z" fill="currentColor" ></path>
    <path d="M10.9288 5.66736H9.92676V6.61365H10.9288V5.66736Z" fill="currentColor" ></path>
    <path d="M2.90733 7.55994H1.90527V8.50623H2.90733V7.55994Z" fill="currentColor" ></path>
    <path d="M4.91221 7.55994H3.91016V8.50623H4.91221V7.55994Z" fill="currentColor" ></path>
    <path d="M6.91807 7.55994H5.91602V8.50623H6.91807V7.55994Z" fill="currentColor" ></path>
    <path d="M8.92393 7.55994H7.92188V8.50623H8.92393V7.55994Z" fill="currentColor" ></path>
    <path d="M2.90733 9.45251H1.90527V10.3988H2.90733V9.45251Z" fill="currentColor" ></path>
    <path d="M4.91221 9.45251H3.91016V10.3988H4.91221V9.45251Z" fill="currentColor" ></path>
    <path d="M6.91807 9.45251H5.91602V10.3988H6.91807V9.45251Z" fill="currentColor" ></path>
    <path d="M8.92393 9.45251H7.92188V10.3988H8.92393V9.45251Z" fill="currentColor" ></path>
    <path d="M10.9288 7.55994H9.92676V8.50623H10.9288V7.55994Z" fill="currentColor" ></path>
</symbol>
<symbol viewBox="0 0 24 24" fill="none" id="Card">
<rect x="2" y="5" width="20" height="15" rx="2" stroke="currentColor" stroke-width="2"></rect>
<path d="M1 10H23" stroke="currentColor" stroke-width="2"></path>
</symbol>
<symbol viewBox="0 0 24 24" fill="none" id="certificates">
<path fill-rule="evenodd" clip-rule="evenodd" d="M19.184 4.912L12 4.75L4.81597 4.912C4.17024 4.92663 3.54928 5.16335 3.05767 5.58228C2.56607 6.00121 2.23385 6.57676 2.11698 7.212C1.53523 10.3772 1.53523 13.6218 2.11698 16.787C2.23388 17.4224 2.56625 17.9981 3.05806 18.417C3.54987 18.836 4.17107 19.0726 4.81697 19.087L12 19.25L19.184 19.088C19.8297 19.0734 20.4507 18.8367 20.9423 18.4177C21.4339 17.9988 21.7661 17.4232 21.883 16.788C22.464 13.622 22.464 10.378 21.883 7.213C21.7661 6.5776 21.4337 6.00192 20.9419 5.58297C20.4501 5.16402 19.8289 4.9274 19.183 4.913M4.84997 6.412L12 6.25L19.15 6.412C19.77 6.426 20.295 6.873 20.407 7.484C20.561 8.318 20.671 9.158 20.739 10H3.25997C3.32779 9.15623 3.4386 8.31648 3.59197 7.484C3.64641 7.1879 3.80124 6.91961 4.03039 6.72435C4.25954 6.52908 4.54899 6.41877 4.84997 6.412ZM3.18097 12C3.18097 13.512 3.31797 15.023 3.59297 16.516C3.70497 17.126 4.22997 17.574 4.84997 17.588L12 17.75L19.15 17.588C19.4508 17.581 19.74 17.4706 19.9689 17.2753C20.1979 17.0801 20.3526 16.8119 20.407 16.516C20.682 15.023 20.819 13.512 20.819 12H3.18097Z" fill="currentColor"></path>
</symbol>
<symbol viewBox="0 0 24 24" fill="none" id="check">
    <path             d="M9.00453 16.1698L5.53453 12.6998C5.14453 12.3098 4.51453 12.3098 4.12453 12.6998C3.73453 13.0898 3.73453 13.7198 4.12453 14.1098L8.30453 18.2898C8.69453 18.6798 9.32453 18.6798 9.71453 18.2898L20.2945 7.70982C20.6845 7.31982 20.6845 6.68982 20.2945 6.29982C19.9045 5.90982 19.2745 5.90982 18.8845 6.29982L9.00453 16.1698Z"
            fill="currentColor"
    ></path>
</symbol>
<symbol viewBox="0 0 24 24" fill="none" id="chevron">
    <path             d="M19 9L12.0368 15.9632L5.07366 9"
            stroke="currentColor"
            stroke-width="2"
            stroke-linecap="round"
            stroke-linejoin="round"
    ></path>
</symbol>
<symbol viewBox="0 0 24 24" fill="none" id="close">
<path d="M6 6.00003L18.7742 18.7742" stroke="currentColor" stroke-width="2" stroke-linecap="round" stroke-linejoin="round"></path>
<path d="M6 18.7742L18.7742 6.00001" stroke="currentColor" stroke-width="2" stroke-linecap="round" stroke-linejoin="round"></path>
</symbol>
<symbol viewBox="0 0 24 24" fill="none" id="Configure">
<path d="M3 17H13" stroke="currentColor" stroke-width="2" stroke-linecap="round"></path>
<path d="M10 7H20" stroke="currentColor" stroke-width="2" stroke-linecap="round"></path>
<circle cx="17" cy="17" r="3" stroke="currentColor" stroke-width="2"></circle>
<circle cx="6" cy="7" r="3" stroke="currentColor" stroke-width="2"></circle>
</symbol>
<symbol viewBox="0 0 24 24" fill="none" id="delete">
<path d="M3.80874 20.1498L3.05125 5H20.9487L20.1913 20.1498C20.1114 21.7464 18.7936 23 17.195 23H6.805C5.20637 23 3.88857 21.7464 3.80874 20.1498Z" stroke="currentColor" stroke-width="2"></path>
<path d="M8 5H16V3C16 1.89543 15.1046 1 14 1H10C8.89543 1 8 1.89543 8 3V5Z" stroke="currentColor" stroke-width="2"></path>
<path d="M1 5H23" stroke="currentColor" stroke-width="2" stroke-linecap="round"></path>
<path d="M15 11V16" stroke="currentColor" stroke-width="2" stroke-linecap="round"></path>
<path d="M9 11V16" stroke="currentColor" stroke-width="2" stroke-linecap="round"></path>
</symbol>
<symbol viewBox="0 0 24 24" fill="none" id="edit">
<path d="M3.55132 15.6617L17.5525 1.66054C17.5891 1.64879 17.632 1.63592 17.6805 1.62278C17.8837 1.56774 18.1757 1.51068 18.5188 1.50595C19.1849 1.49676 20.0653 1.68066 20.9201 2.53553C21.775 3.3904 21.9589 4.27079 21.9497 4.93692C21.945 5.27995 21.8879 5.57197 21.8329 5.77516C21.8198 5.82368 21.8069 5.86655 21.7951 5.90318L7.79396 19.9044L2.97278 20.4829L3.55132 15.6617Z" stroke="currentColor" stroke-width="2" stroke-linecap="round"></path>
<path d="M14.2671 3.53162L19.6546 8.9191" stroke="currentColor" stroke-width="2"></path>
</symbol>
<symbol viewBox="0 0 32 32" fill="none" id="facebook">
    <path d="M21.7311 5H18.5317C17.1175 5 15.7612 5.56179 14.7612 6.56181C13.7612 7.56181 13.1994 8.91811 13.1994 10.3323V13.5317H10V17.7976H13.1994V26.3293H17.4653V17.7976H20.6647L21.7311 13.5317H17.4653V10.3323C17.4653 10.0495 17.5777 9.77823 17.7776 9.57822C17.9776 9.37823 18.2489 9.26587 18.5317 9.26587H21.7311V5Z"
          fill="currentColor" stroke="currentColor" stroke-linecap="round" stroke-linejoin="round"></path>
</symbol>
<symbol viewBox="0 0 11 11" fill="none" id="google-checkmark">
    <g id="Group">
        <g id="Group_2">
            <path                     id="Vector"
                    d="M5.62891 0.768749C2.86766 0.768749 0.628906 3.0075 0.628906 5.76875C0.628906 8.53042 2.86766 10.7687 5.62891 10.7687C8.39016 10.7687 10.6289 8.53042 10.6289 5.76875C10.6289 3.0075 8.39016 0.768749 5.62891 0.768749ZM8.85974 4.7525L5.27349 8.33875C5.20016 8.4125 5.08099 8.4125 5.00807 8.33875L4.47807 7.80333C4.40516 7.73 4.28557 7.61 4.21307 7.53583L2.97974 6.23917C2.94349 6.20292 2.92432 6.15167 2.92432 6.10292C2.92432 6.055 2.94349 6.00833 2.97974 5.97208L3.52016 5.485C3.55682 5.4475 3.60557 5.42917 3.65391 5.42917C3.70141 5.42958 3.74891 5.44833 3.78516 5.485L5.00849 6.73292C5.08141 6.80708 5.20057 6.80708 5.27391 6.73292L8.06516 3.94917C8.13849 3.87542 8.25724 3.87542 8.33016 3.94917L8.86016 4.48458C8.93307 4.55792 8.93307 4.67875 8.85974 4.7525Z"
                    fill="#4385F5"
            ></path>
        </g>
    </g>
</symbol>
<symbol viewBox="0 0 22 22" fill="none" id="instagram">
<path d="M10.8661 15.2502C13.2877 15.2502 15.2508 13.2871 15.2508 10.8655C15.2508 8.44393 13.2877 6.48083 10.8661 6.48083C8.44454 6.48083 6.48145 8.44393 6.48145 10.8655C6.48145 13.2871 8.44454 15.2502 10.8661 15.2502Z" stroke="currentColor" stroke-linecap="round" stroke-linejoin="round"></path>
<path d="M1 15.2503V6.48087C1 3.45387 3.45387 1 6.48087 1H15.2503C18.2772 1 20.7311 3.45387 20.7311 6.48087V15.2503C20.7311 18.2772 18.2772 20.7311 15.2503 20.7311H6.48087C3.45387 20.7311 1 18.2772 1 15.2503Z" stroke="currentColor"></path>
<path d="M16.8955 4.84763L16.9065 4.83545" stroke="currentColor" stroke-linecap="round" stroke-linejoin="round"></path>
</symbol>
<symbol viewBox="0 0 24 24" fill="none" id="Link">
<path fill-rule="evenodd" clip-rule="evenodd" d="M20.8785 2.87855C18.7296 0.729608 15.2455 0.729609 13.0965 2.87855L9.56484 6.41025C9.32188 6.65322 9.51887 7.03495 9.86216 7.02022L11.4187 6.95344C11.7086 6.941 11.9833 6.82027 12.1884 6.61511L14.5108 4.29276C15.8787 2.92487 18.0964 2.92487 19.4643 4.29276C20.8322 5.66066 20.8322 7.87845 19.4643 9.24634L15.9326 12.778C14.5647 14.1459 12.3469 14.1459 10.9791 12.778C10.9449 12.7439 10.9116 12.7092 10.8791 12.6739C10.6091 12.3812 10.2425 12.1738 9.84463 12.1908C9.0894 12.2232 8.59508 12.9924 9.04856 13.5972C9.2041 13.8047 9.37619 14.0036 9.56484 14.1923C11.7138 16.3412 15.1979 16.3412 17.3468 14.1923L20.8785 10.6606C23.0275 8.51161 23.0275 5.02749 20.8785 2.87855Z" fill="currentColor"></path>
<path fill-rule="evenodd" clip-rule="evenodd" d="M13.3846 11.7237C14.1861 11.6964 14.6913 10.8641 14.1663 10.2578C14.0782 10.156 13.9859 10.0567 13.8892 9.96001C11.7087 7.77958 8.17358 7.77958 5.99315 9.96001L2.57547 13.3777C0.395039 15.5581 0.395039 19.0933 2.57547 21.2737C4.75589 23.4541 8.29107 23.4541 10.4715 21.2737L13.8892 17.856C14.0653 17.6799 13.9271 17.3973 13.6782 17.4058L11.877 17.4671C11.5927 17.4768 11.3228 17.594 11.1217 17.7951L9.05728 19.8595C7.6579 21.2589 5.38906 21.2589 3.98968 19.8595C2.5903 18.4601 2.5903 16.1913 3.98968 14.7919L7.40736 11.3742C8.80674 9.97484 11.0756 9.97484 12.475 11.3742C12.6926 11.5919 12.9805 11.7375 13.2881 11.727L13.3846 11.7237Z" fill="currentColor"></path>
</symbol>
<symbol viewBox="0 0 24 24" fill="none" id="location">
<g clip-path="url(#clip0_3256_54580)">
<path fill-rule="evenodd" clip-rule="evenodd" d="M12 2C14.3869 2 16.6761 2.94821 18.364 4.63604C20.0518 6.32387 21 8.61305 21 11C21 14.074 19.324 16.59 17.558 18.395C16.6755 19.2869 15.7128 20.0956 14.682 20.811L14.256 21.101L14.056 21.234L13.679 21.474L13.343 21.679L12.927 21.921C12.6445 22.0818 12.325 22.1663 12 22.1663C11.675 22.1663 11.3555 22.0818 11.073 21.921L10.657 21.679L10.137 21.359L9.945 21.234L9.535 20.961C8.42298 20.2083 7.38707 19.3489 6.442 18.395C4.676 16.589 3 14.074 3 11C3 8.61305 3.94821 6.32387 5.63604 4.63604C7.32387 2.94821 9.61305 2 12 2ZM12 4C10.1435 4 8.36301 4.7375 7.05025 6.05025C5.7375 7.36301 5 9.14348 5 11C5 13.322 6.272 15.36 7.871 16.996C8.55862 17.6919 9.30174 18.3307 10.093 18.906L10.551 19.232C10.699 19.335 10.841 19.431 10.978 19.52L11.368 19.77L11.711 19.979L12 20.148L12.455 19.879L12.822 19.649C13.017 19.525 13.227 19.386 13.449 19.232L13.907 18.906C14.6983 18.3307 15.4414 17.6919 16.129 16.996C17.728 15.361 19 13.322 19 11C19 9.14348 18.2625 7.36301 16.9497 6.05025C15.637 4.7375 13.8565 4 12 4ZM12 7C13.0609 7 14.0783 7.42143 14.8284 8.17157C15.5786 8.92172 16 9.93913 16 11C16 12.0609 15.5786 13.0783 14.8284 13.8284C14.0783 14.5786 13.0609 15 12 15C10.9391 15 9.92172 14.5786 9.17157 13.8284C8.42143 13.0783 8 12.0609 8 11C8 9.93913 8.42143 8.92172 9.17157 8.17157C9.92172 7.42143 10.9391 7 12 7ZM12 9C11.4696 9 10.9609 9.21071 10.5858 9.58579C10.2107 9.96086 10 10.4696 10 11C10 11.5304 10.2107 12.0391 10.5858 12.4142C10.9609 12.7893 11.4696 13 12 13C12.5304 13 13.0391 12.7893 13.4142 12.4142C13.7893 12.0391 14 11.5304 14 11C14 10.4696 13.7893 9.96086 13.4142 9.58579C13.0391 9.21071 12.5304 9 12 9Z" fill="currentColor"></path>
</g>
<defs>
<clipPath id="clip0_3256_54580">
<rect width="24" height="24" fill="white"></rect>
</clipPath>
</defs>
</symbol>
<symbol viewBox="0 0 24 24" fill="none" id="loyalty">
<path d="M20 14H4V8H9.08L7 10.83L8.62 12L11 8.76L12 7.4L13 8.76L15.38 12L17 10.83L14.92 8H20M20 19H4V17H20M9 4C9.26522 4 9.51957 4.10536 9.70711 4.29289C9.89464 4.48043 10 4.73478 10 5C10 5.26522 9.89464 5.51957 9.70711 5.70711C9.51957 5.89464 9.26522 6 9 6C8.73478 6 8.48043 5.89464 8.29289 5.70711C8.10536 5.51957 8 5.26522 8 5C8 4.73478 8.10536 4.48043 8.29289 4.29289C8.48043 4.10536 8.73478 4 9 4ZM15 4C15.2652 4 15.5196 4.10536 15.7071 4.29289C15.8946 4.48043 16 4.73478 16 5C16 5.26522 15.8946 5.51957 15.7071 5.70711C15.5196 5.89464 15.2652 6 15 6C14.7348 6 14.4804 5.89464 14.2929 5.70711C14.1054 5.51957 14 5.26522 14 5C14 4.73478 14.1054 4.48043 14.2929 4.29289C14.4804 4.10536 14.7348 4 15 4ZM20 6H17.82C17.93 5.69 18 5.35 18 5C18 4.20435 17.6839 3.44129 17.1213 2.87868C16.5587 2.31607 15.7956 2 15 2C13.95 2 13.04 2.54 12.5 3.35L12 4L11.5 3.34C10.96 2.54 10.05 2 9 2C8.20435 2 7.44129 2.31607 6.87868 2.87868C6.31607 3.44129 6 4.20435 6 5C6 5.35 6.07 5.69 6.18 6H4C2.89 6 2 6.89 2 8V19C2 20.11 2.89 21 4 21H20C21.11 21 22 20.11 22 19V8C22 6.89 21.11 6 20 6Z" fill="currentColor"></path>
</symbol>
<symbol viewBox="0 0 24 24" fill="none" id="membership">
<path d="M20 10H4V4H20M20 15H4V13H20M20 2H4C2.89 2 2 2.89 2 4V15C2 16.11 2.89 17 4 17H8V22L12 20L16 22V17H20C21.11 17 22 16.11 22 15V4C22 2.89 21.11 2 20 2Z" fill="currentColor"></path>
</symbol>
<symbol viewBox="0 0 24 24" fill="none" id="menu-left">
<path d="M4 7H20" stroke="currentColor" stroke-width="2" stroke-linecap="round"></path>
<path d="M4 17H16" stroke="currentColor" stroke-width="2" stroke-linecap="round"></path>
</symbol>
<symbol viewBox="0 0 36 36" fill="none" id="menu">
    <path d="M6 9H30M6 18H30M6 27C10.1005 27 12.3995 27 16.5 27" stroke="currentColor" stroke-width="3"
          stroke-linecap="square"></path>
</symbol>
<symbol viewBox="0 0 18 18" fill="none" id="phone">
    <path d="M3.625 7.795C5.065 10.625 7.38 12.94 10.215 14.38L12.415 12.175C12.69 11.9 13.085 11.82 13.43 11.93C14.55 12.3 15.755 12.5 17 12.5C17.555 12.5 18 12.945 18 13.5V17C18 17.555 17.555 18 17 18C7.61 18 0 10.39 0 1C0 0.445 0.45 0 1 0H4.5C5.055 0 5.5 0.445 5.5 1C5.5 2.245 5.7 3.45 6.07 4.57C6.18 4.915 6.1 5.31 5.825 5.585L3.625 7.795Z"
          fill="currentColor"></path>
</symbol>
<symbol viewBox="0 0 20 20" fill="none" id="price">
    <path             d="M19.2305 10.4047L11.4711 2.64532C11.3264 2.4997 11.1543 2.38424 10.9647 2.30565C10.775 2.22707 10.5717 2.18691 10.3664 2.18751H3.12501C2.87637 2.18751 2.63791 2.28628 2.46209 2.46209C2.28628 2.63791 2.18751 2.87637 2.18751 3.12501V10.3664C2.18691 10.5717 2.22707 10.775 2.30565 10.9647C2.38424 11.1543 2.4997 11.3264 2.64532 11.4711L10.4047 19.2305C10.6977 19.5234 11.0951 19.688 11.5094 19.688C11.9237 19.688 12.3211 19.5234 12.6141 19.2305L19.2305 12.6141C19.5234 12.3211 19.688 11.9237 19.688 11.5094C19.688 11.0951 19.5234 10.6977 19.2305 10.4047ZM11.5094 17.6836L4.06251 10.2344V4.06251H10.2344L17.6813 11.5094L11.5094 17.6836ZM7.81251 6.56251C7.81251 6.80973 7.7392 7.05141 7.60184 7.25697C7.46449 7.46253 7.26927 7.62275 7.04086 7.71736C6.81245 7.81197 6.56112 7.83672 6.31864 7.78849C6.07617 7.74026 5.85344 7.62121 5.67862 7.44639C5.50381 7.27157 5.38476 7.04885 5.33652 6.80637C5.28829 6.56389 5.31305 6.31256 5.40766 6.08415C5.50227 5.85574 5.66248 5.66052 5.86804 5.52317C6.07361 5.38582 6.31528 5.31251 6.56251 5.31251C6.89403 5.31251 7.21197 5.4442 7.44639 5.67862C7.68081 5.91304 7.81251 6.23099 7.81251 6.56251Z"
            fill="currentColor"
    ></path>
</symbol>
<symbol viewBox="0 0 24 24" fill="none" id="profile">
<path d="M3 21.5L3.16547 20.4362C3.37405 19.0954 4.24842 17.9469 5.54504 17.5466C7.13654 17.0553 9.49052 16.5 12 16.5C14.5095 16.5 16.8635 17.0553 18.455 17.5466C19.7516 17.9469 20.6259 19.0954 20.8345 20.4362L21 21.5" stroke="currentColor" stroke-width="2" stroke-linecap="round" stroke-linejoin="round"></path>
<path d="M12 12C14.7614 12 17 9.76142 17 7C17 4.23858 14.7614 2 12 2C9.23858 2 7 4.23858 7 7C7 9.76142 9.23858 12 12 12Z" stroke="currentColor" stroke-width="2" stroke-linecap="round" stroke-linejoin="round"></path>
</symbol>
<symbol viewBox="0 0 26 24" fill="none" id="referesh">
<path d="M4.23683 9.51926C4.76071 7.69228 5.84953 6.07804 7.34723 4.9079C8.84494 3.73777 10.6746 3.07181 12.5741 3.00548C14.4735 2.93915 16.3452 3.47585 17.9209 4.53866C19.4966 5.60147 20.6954 7.13583 21.3454 8.92182" stroke="currentColor" stroke-width="2" stroke-linecap="round" stroke-linejoin="round"></path>
<path d="M21.1803 15.4987C20.5032 17.1033 19.3752 18.477 17.933 19.4532C16.4907 20.4294 14.7962 20.9662 13.0549 20.9985C11.3137 21.0307 9.60044 20.5571 8.12301 19.635C6.64559 18.7129 5.46743 17.382 4.73141 15.8036" stroke="currentColor" stroke-width="2" stroke-linecap="round" stroke-linejoin="round"></path>
<path d="M6.71387 14.9349L4.14692 15.3156L2.91127 17.5975" stroke="currentColor" stroke-width="2" stroke-linecap="round" stroke-linejoin="round"></path>
<path d="M19.1335 9.72987L21.7005 9.34922L22.9361 7.06727" stroke="currentColor" stroke-width="2" stroke-linecap="round" stroke-linejoin="round"></path>
</symbol>
<symbol viewBox="0 0 25 25" fill="none" id="send">
<path d="M2.22669 12.827C1.39894 12.5087 1.36449 11.3503 2.17186 10.9833L20.9068 2.46743C21.748 2.08508 22.6133 2.95043 22.2309 3.7916L13.7151 22.5265C13.3481 23.3339 12.1897 23.2994 11.8714 22.4717L9.35183 15.9209C9.25026 15.6568 9.04156 15.4481 8.77746 15.3466L2.22669 12.827Z" stroke="currentColor" stroke-width="2"></path>
</symbol>
<symbol viewBox="0 0 24 24" fill="none" id="settings">
<path d="M19.8999 12.66C19.7396 12.4775 19.6512 12.2429 19.6512 12C19.6512 11.7571 19.7396 11.5225 19.8999 11.34L21.1799 9.9C21.3209 9.74267 21.4085 9.5447 21.4301 9.33451C21.4516 9.12431 21.4061 8.91269 21.2999 8.73L19.2999 5.27C19.1948 5.08752 19.0348 4.94288 18.8426 4.85669C18.6505 4.7705 18.4361 4.74716 18.2299 4.79L16.3499 5.17C16.1107 5.21943 15.8616 5.17959 15.6498 5.058C15.4379 4.93641 15.2779 4.74148 15.1999 4.51L14.5899 2.68C14.5228 2.48138 14.395 2.30887 14.2245 2.18684C14.0541 2.06482 13.8495 1.99946 13.6399 2H9.6399C9.42183 1.98862 9.20603 2.04893 9.02546 2.17171C8.84489 2.2945 8.70948 2.47302 8.6399 2.68L8.0799 4.51C8.0019 4.74148 7.84187 4.93641 7.63001 5.058C7.41815 5.17959 7.16911 5.21943 6.9299 5.17L4.9999 4.79C4.80445 4.76238 4.6052 4.79322 4.42724 4.87864C4.24929 4.96406 4.1006 5.10023 3.9999 5.27L1.9999 8.73C1.89106 8.91065 1.84212 9.12109 1.86008 9.33122C1.87804 9.54136 1.96198 9.74044 2.0999 9.9L3.3699 11.34C3.53022 11.5225 3.61863 11.7571 3.61863 12C3.61863 12.2429 3.53022 12.4775 3.3699 12.66L2.0999 14.1C1.96198 14.2596 1.87804 14.4586 1.86008 14.6688C1.84212 14.8789 1.89106 15.0894 1.9999 15.27L3.9999 18.73C4.10499 18.9125 4.26502 19.0571 4.45715 19.1433C4.64928 19.2295 4.86372 19.2528 5.0699 19.21L6.9499 18.83C7.18911 18.7806 7.43815 18.8204 7.65001 18.942C7.86187 19.0636 8.0219 19.2585 8.0999 19.49L8.7099 21.32C8.77948 21.527 8.91489 21.7055 9.09546 21.8283C9.27603 21.9511 9.49183 22.0114 9.7099 22H13.7099C13.9195 22.0005 14.1241 21.9352 14.2945 21.8132C14.465 21.6911 14.5928 21.5186 14.6599 21.32L15.2699 19.49C15.3479 19.2585 15.5079 19.0636 15.7198 18.942C15.9316 18.8204 16.1807 18.7806 16.4199 18.83L18.2999 19.21C18.5061 19.2528 18.7205 19.2295 18.9126 19.1433C19.1048 19.0571 19.2648 18.9125 19.3699 18.73L21.3699 15.27C21.4761 15.0873 21.5216 14.8757 21.5001 14.6655C21.4785 14.4553 21.3909 14.2573 21.2499 14.1L19.8999 12.66ZM18.4099 14L19.2099 14.9L17.9299 17.12L16.7499 16.88C16.0297 16.7328 15.2805 16.8551 14.6445 17.2238C14.0085 17.5925 13.53 18.1818 13.2999 18.88L12.9199 20H10.3599L9.9999 18.86C9.76975 18.1618 9.29128 17.5725 8.6553 17.2038C8.01932 16.8351 7.27012 16.7128 6.5499 16.86L5.3699 17.1L4.0699 14.89L4.8699 13.99C5.36185 13.44 5.63383 12.7279 5.63383 11.99C5.63383 11.2521 5.36185 10.54 4.8699 9.99L4.0699 9.09L5.3499 6.89L6.5299 7.13C7.25012 7.27722 7.99932 7.15488 8.6353 6.7862C9.27128 6.41752 9.74975 5.82816 9.9799 5.13L10.3599 4H12.9199L13.2999 5.14C13.53 5.83816 14.0085 6.42752 14.6445 6.7962C15.2805 7.16488 16.0297 7.28722 16.7499 7.14L17.9299 6.9L19.2099 9.12L18.4099 10.02C17.9235 10.5688 17.6549 11.2767 17.6549 12.01C17.6549 12.7433 17.9235 13.4512 18.4099 14ZM11.6399 8C10.8488 8 10.0754 8.2346 9.41761 8.67412C8.75982 9.11365 8.24713 9.73836 7.94438 10.4693C7.64163 11.2002 7.56241 12.0044 7.71675 12.7804C7.8711 13.5563 8.25206 14.269 8.81147 14.8284C9.37088 15.3878 10.0836 15.7688 10.8595 15.9231C11.6355 16.0775 12.4397 15.9983 13.1706 15.6955C13.9015 15.3928 14.5262 14.8801 14.9658 14.2223C15.4053 13.5645 15.6399 12.7911 15.6399 12C15.6399 10.9391 15.2185 9.92172 14.4683 9.17157C13.7182 8.42143 12.7008 8 11.6399 8ZM11.6399 14C11.2443 14 10.8577 13.8827 10.5288 13.6629C10.1999 13.4432 9.94351 13.1308 9.79214 12.7654C9.64076 12.3999 9.60116 11.9978 9.67833 11.6098C9.7555 11.2219 9.94598 10.8655 10.2257 10.5858C10.5054 10.3061 10.8618 10.1156 11.2497 10.0384C11.6377 9.96126 12.0398 10.0009 12.4053 10.1522C12.7707 10.3036 13.0831 10.56 13.3028 10.8889C13.5226 11.2178 13.6399 11.6044 13.6399 12C13.6399 12.5304 13.4292 13.0391 13.0541 13.4142C12.679 13.7893 12.1703 14 11.6399 14Z" fill="currentColor"></path>
</symbol>
<symbol viewBox="0 0 19 19" fill="none" id="star">
<path 
        d="M17.8535 7.17318L12.0317 6.39694L9.50893 1.15723C9.50893 0.963165 9.31487 0.769104 9.12081 0.769104C8.92675 0.769104 8.73269 0.963165 8.73269 1.15723L6.20996 6.39694L0.388122 7.17318C0.194061 7.17318 0 7.36724 0 7.56131C0 7.75537 0 7.94943 0.194061 8.14349L4.46341 12.2187L3.4931 18.0405C3.4931 18.2346 3.4931 18.4287 3.68716 18.6227C3.88122 18.8168 4.07528 18.8168 4.26935 18.6227L9.50906 15.9059L14.7488 18.6227H14.9428C15.1369 18.6227 15.1369 18.6227 15.331 18.4287C15.525 18.2346 15.525 18.0405 15.525 17.8465L14.5547 12.0247L18.8241 7.94943C18.2419 7.94943 18.2419 7.75537 18.2419 7.56131C18.2419 7.36724 18.0478 7.17318 17.8537 7.17318H17.8535Z"
        fill="currentColor"
></path>
</symbol>
<symbol viewBox="0 0 23 19" fill="none" id="telegram">
    <path d="M22.4644 1L1.2666 9.36755L9.07632 10.4832M22.4644 1L19.6752 17.7351L9.07632 10.4832M22.4644 1L9.07632 10.4832M9.07632 10.4832V16.6194L12.7009 12.9633"
          stroke="currentColor" stroke-linecap="round" stroke-linejoin="round"></path>
</symbol>
<symbol viewBox="0 0 20 21" fill="none" id="time">
    <g clip-path="url(#clip0_3485_10916)">
        <path                 d="M10.0013 2.16663C14.6038 2.16663 18.3346 5.89746 18.3346 10.5C18.3346 15.1025 14.6038 18.8333 10.0013 18.8333C5.3988 18.8333 1.66797 15.1025 1.66797 10.5C1.66797 5.89746 5.3988 2.16663 10.0013 2.16663ZM10.0013 3.83329C8.23319 3.83329 6.5375 4.53567 5.28726 5.78591C4.03701 7.03616 3.33464 8.73185 3.33464 10.5C3.33464 12.2681 4.03701 13.9638 5.28726 15.214C6.5375 16.4642 8.23319 17.1666 10.0013 17.1666C11.7694 17.1666 13.4651 16.4642 14.7153 15.214C15.9656 13.9638 16.668 12.2681 16.668 10.5C16.668 8.73185 15.9656 7.03616 14.7153 5.78591C13.4651 4.53567 11.7694 3.83329 10.0013 3.83329ZM10.0013 5.49996C10.2054 5.49999 10.4024 5.57492 10.5549 5.71056C10.7075 5.84619 10.8049 6.03308 10.8288 6.23579L10.8346 6.33329V10.155L13.0905 12.4108C13.2399 12.5608 13.3267 12.762 13.3332 12.9736C13.3396 13.1852 13.2653 13.3914 13.1253 13.5502C12.9852 13.709 12.79 13.8085 12.5792 13.8286C12.3685 13.8487 12.158 13.7878 11.9905 13.6583L11.9121 13.5891L9.41214 11.0891C9.28262 10.9595 9.19944 10.7908 9.17547 10.6091L9.16797 10.5V6.33329C9.16797 6.11228 9.25577 5.90032 9.41205 5.74404C9.56833 5.58776 9.78029 5.49996 10.0013 5.49996Z"
                fill="currentColor"
        ></path>
    </g>
    <defs>
        <clipPath id="clip0_3485_10916">
            <rect                     width="20"
                    height="20"
                    fill="white"
                    transform="translate(0 0.5)"
            ></rect>
        </clipPath>
    </defs>
</symbol>
<symbol viewBox="0 0 24 24" fill="none" id="unlock">
<path d="M12 4C10.352 4 9 5.352 9 7V10H18C18.5304 10 19.0391 10.2107 19.4142 10.5858C19.7893 10.9609 20 11.4696 20 12V20C20 20.5304 19.7893 21.0391 19.4142 21.4142C19.0391 21.7893 18.5304 22 18 22H6C5.46957 22 4.96086 21.7893 4.58579 21.4142C4.21071 21.0391 4 20.5304 4 20V12C4 11.4696 4.21071 10.9609 4.58579 10.5858C4.96086 10.2107 5.46957 10 6 10H7V7C7 4.248 9.248 2 12 2C14.752 2 17 4.248 17 7C17 7.26522 16.8946 7.51957 16.7071 7.70711C16.5196 7.89464 16.2652 8 16 8C15.7348 8 15.4804 7.89464 15.2929 7.70711C15.1054 7.51957 15 7.26522 15 7C15 5.352 13.648 4 12 4ZM6 12V20H18V12H6Z" fill="currentColor"></path>
</symbol>
</defs>
</svg>
